<svg width="15" height="15" viewBox="0 0 15 15" fill="none" xmlns="http://www.w3.org/2000/svg">
<g clip-path="url(#clip0_744_182)">
<path d="M13.3923 0.535645H1.60658C1.01485 0.535645 0.535156 1.01534 0.535156 1.60707V13.3928C0.535156 13.9845 1.01485 14.4642 1.60658 14.4642H13.3923C13.984 14.4642 14.4637 13.9845 14.4637 13.3928V1.60707C14.4637 1.01534 13.984 0.535645 13.3923 0.535645Z" stroke="#7346F1" stroke-linecap="round" stroke-linejoin="round"/>
<path d="M5.88086 11.3143V7.21068C5.88385 7.14762 5.90228 7.08626 5.93453 7.03198C5.96677 6.9777 6.01185 6.93217 6.06579 6.89937C6.11974 6.86658 6.18092 6.84753 6.24394 6.8439C6.30697 6.84027 6.36993 6.85216 6.42729 6.87854L9.98443 8.92497C10.042 8.96046 10.0896 9.01011 10.1226 9.06919C10.1556 9.12827 10.1729 9.1948 10.1729 9.26247C10.1729 9.33013 10.1556 9.39667 10.1226 9.45574C10.0896 9.51482 10.042 9.56447 9.98443 9.59997L6.42729 11.6571C6.36894 11.6811 6.3057 11.6908 6.24284 11.6854C6.17999 11.6801 6.11931 11.6598 6.06587 11.6262C6.01243 11.5927 5.96777 11.5469 5.93559 11.4927C5.90341 11.4384 5.88465 11.3772 5.88086 11.3143V11.3143Z" stroke="#7346F1" stroke-linecap="round" stroke-linejoin="round"/>
<path d="M0.535156 4.28564H14.4637" stroke="#7346F1" stroke-linecap="round" stroke-linejoin="round"/>
<path d="M4.28516 3.75021L5.58032 0.736187" stroke="#7346F1" stroke-linecap="square" stroke-linejoin="round"/>
<path d="M9.10742 4.28564L10.7146 0.535645" stroke="#7346F1" stroke-linecap="round" stroke-linejoin="round"/>
</g>
<defs>
<clipPath id="clip0_744_182">
<rect width="15" height="15" fill="white"/>
</clipPath>
</defs>
</svg>
