<svg width="21" height="20" viewBox="0 0 21 20" fill="none" xmlns="http://www.w3.org/2000/svg">
<mask id="path-1-inside-1_148_287" fill="white">
<path fill-rule="evenodd" clip-rule="evenodd" d="M8.41 3.08594L7.92188 3.14469C7.92188 3.14469 5.73187 3.38406 4.1325 4.66844H4.11375L4.09375 4.68719C3.735 5.01719 3.57875 5.42281 3.33188 6.01594C3.04086 6.72954 2.79312 7.46003 2.59 8.20344C2.12625 9.88031 1.75 11.9116 1.75 13.7697V13.9259L1.82812 14.0822C2.40688 15.0978 3.43437 15.7447 4.38687 16.1916C5.33875 16.6384 6.16187 16.8753 6.73063 16.8947L7.10187 16.9141L7.29688 16.5822L7.98063 15.3709C8.70563 15.5347 9.54063 15.6447 10.5 15.6447C11.4594 15.6447 12.2944 15.5347 13.0194 15.3709L13.7031 16.5822L13.8988 16.9141L14.2694 16.8947C14.8381 16.8753 15.6613 16.6384 16.6131 16.1916C17.5656 15.7447 18.5931 15.0978 19.1719 14.0822L19.25 13.9259V13.7697C19.25 11.9116 18.8738 9.88031 18.41 8.20344C18.2069 7.46003 17.9591 6.72954 17.6681 6.01594C17.4213 5.42219 17.265 5.01719 16.9062 4.68781L16.8869 4.66781H16.8669C15.2688 3.38406 13.0781 3.14469 13.0781 3.14469L12.59 3.08594L12.4137 3.53531C12.4137 3.53531 12.2331 3.99156 12.1213 4.51219C11.5839 4.43805 11.0424 4.3988 10.5 4.39469C10.1656 4.39469 9.5875 4.41656 8.87875 4.51219C8.76625 3.99156 8.58563 3.53531 8.58563 3.53531L8.41 3.08594ZM7.55062 4.51219C7.5775 4.59969 7.60437 4.67531 7.62875 4.74656C6.82063 4.94656 5.95875 5.25156 5.16812 5.74219L5.83187 6.79719C7.45312 5.79094 9.78187 5.64469 10.5 5.64469C11.2175 5.64469 13.5469 5.79094 15.1681 6.79719L15.8319 5.74219C15.0413 5.25156 14.1794 4.94656 13.3713 4.74594C13.3956 4.67531 13.4225 4.59969 13.4494 4.51156C14.0325 4.62906 15.1462 4.89781 16.0662 5.62531C16.0612 5.62781 16.3006 5.98906 16.5156 6.50406C16.7356 7.03406 16.9794 7.73969 17.1994 8.53531C17.6219 10.0609 17.9538 11.9191 17.9806 13.5547C17.5869 14.1553 16.8575 14.6972 16.0856 15.0591C15.6016 15.2878 15.0894 15.4517 14.5625 15.5466L14.25 15.0197C14.4356 14.9509 14.6187 14.8759 14.7775 14.8047C15.7394 14.3822 16.2619 13.9259 16.2619 13.9259L15.4412 12.9884C15.4412 12.9884 15.09 13.3109 14.2694 13.6722C13.45 14.0334 12.1969 14.3947 10.5 14.3947C8.80312 14.3947 7.55062 14.0334 6.73063 13.6722C5.91 13.3109 5.55875 12.9884 5.55875 12.9884L4.73813 13.9259C4.73813 13.9259 5.26063 14.3822 6.2225 14.8047C6.39582 14.8824 6.57176 14.9541 6.75 15.0197L6.4375 15.5472C5.9103 15.452 5.39796 15.2877 4.91375 15.0584C4.1425 14.6972 3.4125 14.1553 3.02 13.5547C3.04625 11.9191 3.37813 10.0609 3.80125 8.53531C3.98821 7.8452 4.21633 7.1669 4.48438 6.50406C4.69937 5.98906 4.93875 5.62781 4.93375 5.62531C5.85375 4.89781 6.9675 4.62906 7.55062 4.51219ZM8.3125 8.76969C7.82937 8.76969 7.40188 9.04531 7.14062 9.39469C6.87937 9.74406 6.75 10.1734 6.75 10.6447C6.75 11.1159 6.87937 11.5453 7.14062 11.8947C7.40188 12.2441 7.82937 12.5197 8.3125 12.5197C8.79563 12.5197 9.22312 12.2441 9.48438 11.8947C9.74563 11.5453 9.875 11.1159 9.875 10.6447C9.875 10.1734 9.74563 9.74406 9.48438 9.39469C9.22312 9.04531 8.79563 8.76969 8.3125 8.76969ZM12.6875 8.76969C12.2044 8.76969 11.7769 9.04531 11.5156 9.39469C11.2544 9.74406 11.125 10.1734 11.125 10.6447C11.125 11.1159 11.2544 11.5453 11.5156 11.8947C11.7769 12.2441 12.2044 12.5197 12.6875 12.5197C13.1706 12.5197 13.5981 12.2441 13.8594 11.8947C14.1206 11.5453 14.25 11.1159 14.25 10.6447C14.25 10.1734 14.1206 9.74406 13.8594 9.39469C13.5981 9.04531 13.1706 8.76969 12.6875 8.76969ZM8.3125 10.0197C8.34688 10.0197 8.39062 10.0322 8.46875 10.1372C8.54688 10.2416 8.625 10.4247 8.625 10.6447C8.625 10.8647 8.54688 11.0478 8.46875 11.1528C8.39062 11.2572 8.34688 11.2697 8.3125 11.2697C8.27812 11.2697 8.23438 11.2572 8.15625 11.1522C8.05289 11.0033 7.99829 10.8259 8 10.6447C8 10.4247 8.07812 10.2416 8.15625 10.1366C8.23438 10.0322 8.27812 10.0197 8.3125 10.0197ZM12.6875 10.0197C12.7219 10.0197 12.7656 10.0322 12.8438 10.1372C12.9219 10.2416 13 10.4247 13 10.6447C13 10.8647 12.9219 11.0478 12.8438 11.1528C12.7656 11.2572 12.7219 11.2697 12.6875 11.2697C12.6531 11.2697 12.6094 11.2572 12.5312 11.1522C12.4279 11.0033 12.3733 10.8259 12.375 10.6447C12.375 10.4247 12.4531 10.2416 12.5312 10.1366C12.6094 10.0322 12.6531 10.0197 12.6875 10.0197Z"/>
</mask>
<path fill-rule="evenodd" clip-rule="evenodd" d="M8.41 3.08594L7.92188 3.14469C7.92188 3.14469 5.73187 3.38406 4.1325 4.66844H4.11375L4.09375 4.68719C3.735 5.01719 3.57875 5.42281 3.33188 6.01594C3.04086 6.72954 2.79312 7.46003 2.59 8.20344C2.12625 9.88031 1.75 11.9116 1.75 13.7697V13.9259L1.82812 14.0822C2.40688 15.0978 3.43437 15.7447 4.38687 16.1916C5.33875 16.6384 6.16187 16.8753 6.73063 16.8947L7.10187 16.9141L7.29688 16.5822L7.98063 15.3709C8.70563 15.5347 9.54063 15.6447 10.5 15.6447C11.4594 15.6447 12.2944 15.5347 13.0194 15.3709L13.7031 16.5822L13.8988 16.9141L14.2694 16.8947C14.8381 16.8753 15.6613 16.6384 16.6131 16.1916C17.5656 15.7447 18.5931 15.0978 19.1719 14.0822L19.25 13.9259V13.7697C19.25 11.9116 18.8738 9.88031 18.41 8.20344C18.2069 7.46003 17.9591 6.72954 17.6681 6.01594C17.4213 5.42219 17.265 5.01719 16.9062 4.68781L16.8869 4.66781H16.8669C15.2688 3.38406 13.0781 3.14469 13.0781 3.14469L12.59 3.08594L12.4137 3.53531C12.4137 3.53531 12.2331 3.99156 12.1213 4.51219C11.5839 4.43805 11.0424 4.3988 10.5 4.39469C10.1656 4.39469 9.5875 4.41656 8.87875 4.51219C8.76625 3.99156 8.58563 3.53531 8.58563 3.53531L8.41 3.08594ZM7.55062 4.51219C7.5775 4.59969 7.60437 4.67531 7.62875 4.74656C6.82063 4.94656 5.95875 5.25156 5.16812 5.74219L5.83187 6.79719C7.45312 5.79094 9.78187 5.64469 10.5 5.64469C11.2175 5.64469 13.5469 5.79094 15.1681 6.79719L15.8319 5.74219C15.0413 5.25156 14.1794 4.94656 13.3713 4.74594C13.3956 4.67531 13.4225 4.59969 13.4494 4.51156C14.0325 4.62906 15.1462 4.89781 16.0662 5.62531C16.0612 5.62781 16.3006 5.98906 16.5156 6.50406C16.7356 7.03406 16.9794 7.73969 17.1994 8.53531C17.6219 10.0609 17.9538 11.9191 17.9806 13.5547C17.5869 14.1553 16.8575 14.6972 16.0856 15.0591C15.6016 15.2878 15.0894 15.4517 14.5625 15.5466L14.25 15.0197C14.4356 14.9509 14.6187 14.8759 14.7775 14.8047C15.7394 14.3822 16.2619 13.9259 16.2619 13.9259L15.4412 12.9884C15.4412 12.9884 15.09 13.3109 14.2694 13.6722C13.45 14.0334 12.1969 14.3947 10.5 14.3947C8.80312 14.3947 7.55062 14.0334 6.73063 13.6722C5.91 13.3109 5.55875 12.9884 5.55875 12.9884L4.73813 13.9259C4.73813 13.9259 5.26063 14.3822 6.2225 14.8047C6.39582 14.8824 6.57176 14.9541 6.75 15.0197L6.4375 15.5472C5.9103 15.452 5.39796 15.2877 4.91375 15.0584C4.1425 14.6972 3.4125 14.1553 3.02 13.5547C3.04625 11.9191 3.37813 10.0609 3.80125 8.53531C3.98821 7.8452 4.21633 7.1669 4.48438 6.50406C4.69937 5.98906 4.93875 5.62781 4.93375 5.62531C5.85375 4.89781 6.9675 4.62906 7.55062 4.51219ZM8.3125 8.76969C7.82937 8.76969 7.40188 9.04531 7.14062 9.39469C6.87937 9.74406 6.75 10.1734 6.75 10.6447C6.75 11.1159 6.87937 11.5453 7.14062 11.8947C7.40188 12.2441 7.82937 12.5197 8.3125 12.5197C8.79563 12.5197 9.22312 12.2441 9.48438 11.8947C9.74563 11.5453 9.875 11.1159 9.875 10.6447C9.875 10.1734 9.74563 9.74406 9.48438 9.39469C9.22312 9.04531 8.79563 8.76969 8.3125 8.76969ZM12.6875 8.76969C12.2044 8.76969 11.7769 9.04531 11.5156 9.39469C11.2544 9.74406 11.125 10.1734 11.125 10.6447C11.125 11.1159 11.2544 11.5453 11.5156 11.8947C11.7769 12.2441 12.2044 12.5197 12.6875 12.5197C13.1706 12.5197 13.5981 12.2441 13.8594 11.8947C14.1206 11.5453 14.25 11.1159 14.25 10.6447C14.25 10.1734 14.1206 9.74406 13.8594 9.39469C13.5981 9.04531 13.1706 8.76969 12.6875 8.76969ZM8.3125 10.0197C8.34688 10.0197 8.39062 10.0322 8.46875 10.1372C8.54688 10.2416 8.625 10.4247 8.625 10.6447C8.625 10.8647 8.54688 11.0478 8.46875 11.1528C8.39062 11.2572 8.34688 11.2697 8.3125 11.2697C8.27812 11.2697 8.23438 11.2572 8.15625 11.1522C8.05289 11.0033 7.99829 10.8259 8 10.6447C8 10.4247 8.07812 10.2416 8.15625 10.1366C8.23438 10.0322 8.27812 10.0197 8.3125 10.0197ZM12.6875 10.0197C12.7219 10.0197 12.7656 10.0322 12.8438 10.1372C12.9219 10.2416 13 10.4247 13 10.6447C13 10.8647 12.9219 11.0478 12.8438 11.1528C12.7656 11.2572 12.7219 11.2697 12.6875 11.2697C12.6531 11.2697 12.6094 11.2572 12.5312 11.1522C12.4279 11.0033 12.3733 10.8259 12.375 10.6447C12.375 10.4247 12.4531 10.2416 12.5312 10.1366C12.6094 10.0322 12.6531 10.0197 12.6875 10.0197Z" fill="#1687E5" stroke="#1687E5" stroke-width="0.03125" mask="url(#path-1-inside-1_148_287)"/>
</svg>
