<svg width="50" height="50" viewBox="0 0 50 50" fill="none" xmlns="http://www.w3.org/2000/svg">
<circle cx="25" cy="25" r="25" fill="#E4F3FF"/>
<g clip-path="url(#clip0_997_974)">
<path d="M30.0005 12.1875C25.6855 12.1875 22.1875 14.1165 22.1875 16.4995C22.1875 18.8825 25.6865 20.8125 30.0005 20.8125C34.3155 20.8125 37.8135 18.8825 37.8135 16.4995C37.8135 14.1165 34.3145 12.1875 30.0005 12.1875ZM37.8135 17.7805C37.8115 20.1635 34.3155 22.0935 30.0005 22.0935C25.6975 22.0935 22.2075 20.1845 22.1875 17.8125V19.4995C22.1875 20.5175 22.8395 21.4495 23.9075 22.1875C24.9875 22.4815 25.9495 22.8895 26.7505 23.4055C27.7435 23.6575 28.8355 23.8115 30.0005 23.8115C34.3155 23.8115 37.8135 21.8825 37.8135 19.4995V17.7805ZM37.8135 20.7805C37.8135 23.1635 34.3155 25.0935 30.0005 25.0935C29.4755 25.0935 28.9655 25.0545 28.4695 24.9995C28.8609 25.5266 29.1279 26.1355 29.2505 26.7805C29.4995 26.7945 29.7455 26.8115 30.0005 26.8115C34.3155 26.8115 37.8135 24.8825 37.8135 22.4995V20.7805ZM20.0005 23.1865C15.6855 23.1865 12.1875 25.1165 12.1875 27.4995C12.1875 29.8825 15.6865 31.8125 20.0005 31.8125C24.3155 31.8125 27.8135 29.8825 27.8135 27.4995C27.8135 25.1165 24.3145 23.1865 20.0005 23.1865ZM37.8135 23.7805C37.8115 26.1635 34.3155 28.0935 30.0005 28.0935C29.7495 28.0935 29.4955 28.0755 29.2505 28.0615C29.2395 28.1365 29.2335 28.2365 29.2195 28.3115C29.2695 28.4625 29.3125 28.6115 29.3125 28.7815V29.7815C29.5395 29.7925 29.7675 29.8115 30.0005 29.8115C34.3155 29.8115 37.8135 27.8825 37.8135 25.4995V23.7805ZM37.8135 26.7805C37.8115 29.1635 34.3155 31.0935 30.0005 31.0935C29.7495 31.0935 29.4955 31.0755 29.2505 31.0615C29.2395 31.1365 29.2335 31.2365 29.2195 31.3115C29.2695 31.4615 29.3125 31.6115 29.3125 31.7815V32.7815C29.5395 32.7925 29.7675 32.8115 30.0005 32.8115C34.3155 32.8115 37.8135 30.8825 37.8135 28.4995V26.7805ZM27.8135 28.7805C27.8115 31.1635 24.3155 33.0935 20.0005 33.0935C15.6975 33.0935 12.2075 31.1845 12.1875 28.8115V30.4995C12.1875 32.8825 15.6845 34.8125 20.0005 34.8125C24.3165 34.8125 27.8135 32.8825 27.8135 30.4995V28.7805ZM27.8135 31.7805C27.8115 34.1635 24.3155 36.0935 20.0005 36.0935C15.6975 36.0935 12.2075 34.1845 12.1875 31.8115V33.4995C12.1875 35.8825 15.6845 37.8125 20.0005 37.8125C24.3165 37.8125 27.8135 35.8825 27.8135 33.4995V31.7805Z" fill="#1687E5"/>
</g>
<defs>
<clipPath id="clip0_997_974">
<rect width="26" height="26" fill="white" transform="translate(12 12)"/>
</clipPath>
</defs>
</svg>
