<svg width="50" height="50" viewBox="0 0 50 50" fill="none" xmlns="http://www.w3.org/2000/svg">
<rect width="50" height="50" rx="10" fill="#82E57C"/>
<path d="M25.0001 14.0996C18.9799 14.0996 14.0996 18.9799 14.0996 25.0001C14.0996 31.0204 18.9799 35.9006 25.0001 35.9006C31.0204 35.9006 35.9006 31.0204 35.9006 25.0001C35.9006 18.9799 31.0204 14.0996 25.0001 14.0996ZM25.9414 30.9101V32.4454H24.4729V30.9274C22.0631 30.5974 21.0079 28.6174 21.0079 28.6174L22.5079 27.3626C22.5079 27.3626 23.4656 29.0299 25.1981 29.0299C26.1551 29.0299 26.8811 28.5176 26.8811 27.6424C26.8811 25.5964 21.3686 25.8446 21.3686 22.0489C21.3686 20.3989 22.6736 19.2101 24.4721 18.9289V17.3951H25.9406V18.9289C27.1946 19.0939 28.6796 19.7539 28.6796 21.1736V22.2626H26.7326V21.7346C26.7326 21.1901 26.0389 20.8271 25.2626 20.8271C24.2726 20.8271 23.5474 21.3221 23.5474 22.0151C23.5474 24.1106 29.0599 23.5991 29.0599 27.5764C29.0599 29.2114 27.8389 30.6289 25.9414 30.9101Z" fill="#1E8C17"/>
</svg>
