<svg width="1405" height="403" viewBox="0 0 1405 403" fill="none" xmlns="http://www.w3.org/2000/svg">
<g filter="url(#filter0_dd_871_2938)">
<g clip-path="url(#clip0_871_2938)">
<rect x="12" width="1381" height="379" rx="24" fill="#6B249A"/>
<g opacity="0.5">
<path opacity="0.56" d="M140.982 3.55321L-294.478 -175.204C-295.8 -175.747 -297.942 -175.747 -299.264 -175.204C-300.585 -174.662 -300.585 -173.782 -299.264 -173.24L136.197 5.51758C137.518 6.06003 139.661 6.06003 140.982 5.51758C142.303 4.97514 142.303 4.09566 140.982 3.55321Z" fill="white" fill-opacity="0.1"/>
<path opacity="0.42" d="M1676.87 87.6883L1305.21 -64.8777C1303.89 -65.4201 1301.75 -65.4201 1300.42 -64.8777C1299.1 -64.3352 1299.1 -63.4558 1300.42 -62.9133L1672.08 89.6527C1673.4 90.1951 1675.54 90.1951 1676.87 89.6527C1678.19 89.1102 1678.19 88.2307 1676.87 87.6883Z" fill="white" fill-opacity="0.1"/>
<path opacity="0.31" d="M381.202 474.42L-408.369 150.299C-409.69 149.757 -411.833 149.757 -413.154 150.299C-414.476 150.842 -414.476 151.721 -413.154 152.263L376.417 476.384C377.738 476.927 379.881 476.927 381.202 476.384C382.524 475.842 382.524 474.962 381.202 474.42Z" fill="white" fill-opacity="0.1"/>
<path opacity="0.69" d="M1100.65 154.885L789.611 27.2009C788.29 26.6585 786.148 26.6585 784.826 27.2009C783.505 27.7434 783.505 28.6229 784.826 29.1653L1095.87 156.849C1097.19 157.392 1099.33 157.392 1100.65 156.849C1101.98 156.307 1101.98 155.427 1100.65 154.885Z" fill="white" fill-opacity="0.1"/>
<path opacity="0.86" d="M522.764 78.7862L-89.7519 -172.653C-91.0733 -173.196 -93.2158 -173.196 -94.5372 -172.653C-95.8586 -172.111 -95.8586 -171.231 -94.5372 -170.689L517.979 80.7505C519.3 81.293 521.443 81.293 522.764 80.7505C524.085 80.2081 524.085 79.3286 522.764 78.7862Z" fill="white" fill-opacity="0.1"/>
<path opacity="0.57" d="M782.205 565.877L300.486 368.131C299.165 367.588 297.023 367.588 295.701 368.131C294.38 368.673 294.38 369.553 295.701 370.095L777.419 567.842C778.741 568.384 780.883 568.384 782.205 567.842C783.526 567.299 783.526 566.42 782.205 565.877Z" fill="white" fill-opacity="0.1"/>
<path opacity="0.29" d="M1185.85 92.628L708.92 -103.154C707.599 -103.696 705.456 -103.696 704.135 -103.154C702.813 -102.612 702.813 -101.732 704.135 -101.19L1181.07 94.5924C1182.39 95.1348 1184.53 95.1348 1185.85 94.5924C1187.17 94.0499 1187.17 93.1705 1185.85 92.628Z" fill="white" fill-opacity="0.1"/>
<path opacity="0.26" d="M225.761 55.0225L112.51 8.53248C111.188 7.99003 109.046 7.99003 107.725 8.53248C106.403 9.07492 106.403 9.9544 107.725 10.4968L220.976 56.9869C222.298 57.5293 224.44 57.5293 225.761 56.9869C227.083 56.4445 227.083 55.565 225.761 55.0225Z" fill="white" fill-opacity="0.1"/>
<path opacity="0.21" d="M1295.26 349.594L595.01 62.1414C593.688 61.5989 591.546 61.5989 590.225 62.1414C588.903 62.6838 588.903 63.5633 590.225 64.1057L1290.47 351.558C1291.79 352.101 1293.93 352.101 1295.26 351.558C1296.58 351.016 1296.58 350.136 1295.26 349.594Z" fill="white" fill-opacity="0.1"/>
<path opacity="0.35" d="M229.224 389.809L100.022 336.771C98.7001 336.229 96.5577 336.229 95.2363 336.771C93.9148 337.313 93.9148 338.193 95.2363 338.735L224.439 391.773C225.76 392.316 227.903 392.316 229.224 391.773C230.545 391.231 230.545 390.351 229.224 389.809Z" fill="white" fill-opacity="0.1"/>
<path opacity="0.91" d="M823.3 261.421L692.502 207.728C691.181 207.186 689.038 207.186 687.717 207.728C686.395 208.271 686.395 209.15 687.717 209.693L818.514 263.385C819.836 263.928 821.978 263.928 823.3 263.385C824.621 262.843 824.621 261.963 823.3 261.421Z" fill="white" fill-opacity="0.1"/>
<path opacity="0.44" d="M1305.82 267.812L972.443 130.961C971.122 130.418 968.98 130.418 967.658 130.961C966.337 131.503 966.337 132.383 967.658 132.925L1301.03 269.776C1302.35 270.319 1304.5 270.319 1305.82 269.776C1307.14 269.234 1307.14 268.354 1305.82 267.812Z" fill="white" fill-opacity="0.1"/>
<path opacity="0.34" d="M138.409 107.135L-233.248 -45.4314C-234.569 -45.9738 -236.712 -45.9738 -238.033 -45.4314C-239.355 -44.8889 -239.355 -44.0095 -238.033 -43.467L133.624 109.099C134.945 109.641 137.087 109.641 138.409 109.099C139.73 108.557 139.73 107.677 138.409 107.135Z" fill="white" fill-opacity="0.1"/>
<path opacity="0.98" d="M716.841 289.947L-134.939 -59.7102C-136.261 -60.2526 -138.403 -60.2526 -139.725 -59.7102C-141.046 -59.1678 -141.046 -58.2883 -139.725 -57.7458L712.055 291.912C713.377 292.454 715.519 292.454 716.841 291.912C718.162 291.369 718.162 290.49 716.841 289.947Z" fill="white" fill-opacity="0.1"/>
<path opacity="0.77" d="M891.485 390.347L322.037 156.587C320.716 156.044 318.573 156.044 317.252 156.587C315.93 157.129 315.93 158.009 317.252 158.551L886.7 392.311C888.022 392.853 890.164 392.853 891.485 392.311C892.807 391.768 892.807 390.889 891.485 390.347Z" fill="white" fill-opacity="0.1"/>
<path opacity="0.1" d="M1335.46 17.9189L1096.2 -80.2996C1094.88 -80.842 1092.73 -80.842 1091.41 -80.2996C1090.09 -79.7571 1090.09 -78.8776 1091.41 -78.3352L1330.68 19.8832C1332 20.4257 1334.14 20.4257 1335.46 19.8833C1336.78 19.3408 1336.78 18.4613 1335.46 17.9189Z" fill="white" fill-opacity="0.1"/>
<path opacity="0.15" d="M1132.11 615.062L352.107 294.87C350.786 294.327 348.644 294.327 347.322 294.87C346.001 295.412 346.001 296.292 347.322 296.834L1127.32 617.026C1128.64 617.569 1130.79 617.569 1132.11 617.026C1133.43 616.484 1133.43 615.604 1132.11 615.062Z" fill="white" fill-opacity="0.1"/>
<path opacity="0.09" d="M709.185 481.268L-190.447 111.967C-191.769 111.425 -193.911 111.425 -195.232 111.967C-196.554 112.509 -196.554 113.389 -195.232 113.931L704.4 483.233C705.722 483.775 707.864 483.775 709.185 483.233C710.507 482.69 710.507 481.811 709.185 481.268Z" fill="white" fill-opacity="0.1"/>
<path opacity="0.6" d="M993.439 561.841L66.6895 181.408C65.3681 180.866 63.2257 180.866 61.9042 181.408C60.5828 181.95 60.5828 182.83 61.9042 183.372L988.653 563.805C989.975 564.347 992.117 564.347 993.439 563.805C994.76 563.263 994.76 562.383 993.439 561.841Z" fill="white" fill-opacity="0.1"/>
<path opacity="0.94" d="M1125.01 412.126L1040.47 377.423C1039.15 376.88 1037 376.88 1035.68 377.423C1034.36 377.965 1034.36 378.845 1035.68 379.387L1120.22 414.091C1121.54 414.633 1123.69 414.633 1125.01 414.091C1126.33 413.548 1126.33 412.669 1125.01 412.126Z" fill="white" fill-opacity="0.1"/>
<path opacity="0.68" d="M163.567 57.2711L-299.01 -132.618C-300.331 -133.16 -302.474 -133.16 -303.795 -132.618C-305.116 -132.075 -305.116 -131.196 -303.795 -130.654L158.782 59.2355C160.104 59.7779 162.246 59.7779 163.567 59.2355C164.889 58.693 164.889 57.8135 163.567 57.2711Z" fill="white" fill-opacity="0.1"/>
<path opacity="0.84" d="M1090.39 264.571L217.877 -93.5984C216.556 -94.1408 214.413 -94.1408 213.092 -93.5984C211.77 -93.0559 211.77 -92.1765 213.092 -91.634L1085.61 266.536C1086.93 267.078 1089.07 267.078 1090.39 266.536C1091.71 265.993 1091.71 265.114 1090.39 264.571Z" fill="white" fill-opacity="0.1"/>
<path opacity="0.8" d="M283.35 56.4384L-134.564 -115.116C-135.886 -115.659 -138.028 -115.659 -139.35 -115.116C-140.671 -114.574 -140.671 -113.695 -139.35 -113.152L278.565 58.4028C279.886 58.9452 282.029 58.9452 283.35 58.4028C284.671 57.8603 284.671 56.9808 283.35 56.4384Z" fill="white" fill-opacity="0.1"/>
<path opacity="0.59" d="M981.347 378.157L687.85 257.675C686.528 257.133 684.386 257.133 683.064 257.675C681.743 258.218 681.743 259.097 683.064 259.64L976.562 380.121C977.883 380.663 980.025 380.663 981.347 380.121C982.668 379.578 982.668 378.699 981.347 378.157Z" fill="white" fill-opacity="0.1"/>
<path opacity="0.81" d="M1631.35 178.272L958.217 -98.0491C956.895 -98.5915 954.753 -98.5915 953.432 -98.0491C952.11 -97.5066 952.11 -96.6271 953.432 -96.0847L1626.56 180.237C1627.88 180.779 1630.02 180.779 1631.35 180.237C1632.67 179.694 1632.67 178.815 1631.35 178.272Z" fill="white" fill-opacity="0.1"/>
<path opacity="0.76" d="M420.74 586.029L-515.58 201.667C-516.901 201.125 -519.044 201.125 -520.365 201.667C-521.687 202.21 -521.687 203.089 -520.365 203.632L415.955 587.993C417.276 588.536 419.419 588.536 420.74 587.993C422.062 587.451 422.061 586.572 420.74 586.029Z" fill="white" fill-opacity="0.1"/>
<path opacity="0.11" d="M1632.22 508.291L718.232 133.096C716.911 132.554 714.769 132.554 713.447 133.096C712.126 133.639 712.126 134.518 713.447 135.061L1627.44 510.255C1628.76 510.798 1630.9 510.798 1632.22 510.255C1633.54 509.713 1633.54 508.833 1632.22 508.291Z" fill="white" fill-opacity="0.1"/>
<path opacity="0.81" d="M521.57 332.948L371.631 271.398C370.31 270.856 368.167 270.856 366.846 271.398C365.524 271.941 365.524 272.82 366.846 273.363L516.784 334.913C518.106 335.455 520.248 335.455 521.57 334.913C522.891 334.37 522.891 333.491 521.57 332.948Z" fill="white" fill-opacity="0.1"/>
<path opacity="0.38" d="M1494.15 190.475L1122.49 37.9094C1121.17 37.367 1119.03 37.367 1117.71 37.9094C1116.38 38.4519 1116.38 39.3314 1117.71 39.8738L1489.36 192.44C1490.68 192.982 1492.83 192.982 1494.15 192.44C1495.47 191.897 1495.47 191.018 1494.15 190.475Z" fill="white" fill-opacity="0.1"/>
<path opacity="0.68" d="M1607.94 491.84L1306.46 368.085C1305.14 367.543 1303 367.543 1301.68 368.085C1300.36 368.628 1300.36 369.507 1301.68 370.05L1603.15 493.805C1604.47 494.347 1606.61 494.347 1607.94 493.805C1609.26 493.262 1609.26 492.383 1607.94 491.84Z" fill="white" fill-opacity="0.1"/>
<path opacity="0.37" d="M1704.77 75.9904L988.568 -218.01C987.247 -218.552 985.105 -218.552 983.783 -218.01C982.462 -217.468 982.462 -216.588 983.783 -216.046L1699.98 77.9548C1701.3 78.4972 1703.44 78.4973 1704.77 77.9548C1706.09 77.4124 1706.09 76.5329 1704.77 75.9904Z" fill="white" fill-opacity="0.1"/>
<path opacity="0.9" d="M2102.8 820.92L983.041 361.258C981.72 360.715 979.577 360.715 978.256 361.258C976.934 361.8 976.934 362.679 978.256 363.222L2098.01 822.884C2099.33 823.427 2101.48 823.427 2102.8 822.884C2104.12 822.342 2104.12 821.462 2102.8 820.92Z" fill="white" fill-opacity="0.1"/>
<path opacity="0.18" d="M86.4951 154.35L-100.131 77.7395C-101.452 77.1971 -103.595 77.1971 -104.916 77.7395C-106.237 78.282 -106.237 79.1614 -104.916 79.7039L81.7098 156.314C83.0313 156.857 85.1737 156.857 86.4951 156.314C87.8165 155.772 87.8165 154.892 86.4951 154.35Z" fill="white" fill-opacity="0.1"/>
<path opacity="0.32" d="M188.836 341.745L-342.33 123.7C-343.651 123.158 -345.794 123.158 -347.115 123.7C-348.437 124.242 -348.437 125.122 -347.115 125.664L184.051 343.709C185.372 344.252 187.515 344.252 188.836 343.709C190.157 343.167 190.157 342.287 188.836 341.745Z" fill="white" fill-opacity="0.1"/>
<path opacity="0.89" d="M817.668 412.828L-168.1 8.16822C-169.421 7.62577 -171.563 7.62577 -172.885 8.16822C-174.206 8.71066 -174.206 9.59014 -172.885 10.1326L812.883 414.793C814.204 415.335 816.347 415.335 817.668 414.793C818.99 414.25 818.99 413.371 817.668 412.828Z" fill="white" fill-opacity="0.1"/>
<path opacity="0.8" d="M394.501 557.665L-123.904 344.858C-125.226 344.316 -127.368 344.316 -128.69 344.858C-130.011 345.401 -130.011 346.28 -128.69 346.823L389.716 559.629C391.037 560.172 393.18 560.172 394.501 559.629C395.823 559.087 395.823 558.207 394.501 557.665Z" fill="white" fill-opacity="0.1"/>
<path opacity="0.91" d="M921.848 657.466L-236.189 182.088C-237.511 181.546 -239.653 181.546 -240.975 182.088C-242.296 182.631 -242.296 183.51 -240.975 184.053L917.063 659.43C918.385 659.972 920.527 659.972 921.848 659.43C923.17 658.888 923.17 658.008 921.848 657.466Z" fill="white" fill-opacity="0.1"/>
<path opacity="0.99" d="M1659.43 372.227L1345.2 243.233C1343.88 242.691 1341.73 242.691 1340.41 243.233C1339.09 243.776 1339.09 244.655 1340.41 245.198L1654.65 374.191C1655.97 374.734 1658.11 374.734 1659.43 374.191C1660.75 373.649 1660.75 372.769 1659.43 372.227Z" fill="white" fill-opacity="0.1"/>
<path opacity="0.58" d="M214.211 261.413L-47.3847 154.028C-48.7061 153.485 -50.8486 153.485 -52.17 154.028C-53.4914 154.57 -53.4914 155.45 -52.17 155.992L209.425 263.377C210.747 263.92 212.889 263.92 214.211 263.377C215.532 262.835 215.532 261.956 214.211 261.413Z" fill="white" fill-opacity="0.1"/>
<path opacity="0.12" d="M1401.4 197.779L1328.03 167.658C1326.7 167.116 1324.56 167.116 1323.24 167.658C1321.92 168.201 1321.92 169.08 1323.24 169.623L1396.61 199.743C1397.94 200.285 1400.08 200.285 1401.4 199.743C1402.72 199.2 1402.72 198.321 1401.4 197.779Z" fill="white" fill-opacity="0.1"/>
<path opacity="0.35" d="M810.362 83.8719L448.275 -64.7654C446.954 -65.3078 444.812 -65.3078 443.49 -64.7654C442.169 -64.2229 442.169 -63.3435 443.49 -62.801L805.576 85.8362C806.898 86.3787 809.04 86.3787 810.362 85.8362C811.683 85.2938 811.683 84.4143 810.362 83.8719Z" fill="white" fill-opacity="0.1"/>
<path opacity="0.25" d="M1058.62 67.2521L560.947 -137.042C559.626 -137.585 557.483 -137.585 556.162 -137.042C554.841 -136.5 554.841 -135.62 556.162 -135.078L1053.83 69.2164C1055.15 69.7589 1057.29 69.7589 1058.62 69.2165C1059.94 68.674 1059.94 67.7945 1058.62 67.2521Z" fill="white" fill-opacity="0.1"/>
<path opacity="0.79" d="M1492.48 319.434L1205.36 201.572C1204.04 201.029 1201.9 201.029 1200.58 201.572C1199.25 202.114 1199.25 202.993 1200.58 203.536L1487.69 321.398C1489.01 321.94 1491.16 321.94 1492.48 321.398C1493.8 320.856 1493.8 319.976 1492.48 319.434Z" fill="white" fill-opacity="0.1"/>
<path opacity="0.98" d="M826.19 203.343L-36.7558 -150.899C-38.0772 -151.441 -40.2197 -151.441 -41.5411 -150.899C-42.8625 -150.356 -42.8625 -149.477 -41.5411 -148.934L821.405 205.307C822.726 205.849 824.869 205.849 826.19 205.307C827.511 204.765 827.511 203.885 826.19 203.343Z" fill="white" fill-opacity="0.1"/>
<path opacity="0.71" d="M790.772 86.0179L61.8145 -213.221C60.4931 -213.763 58.3507 -213.763 57.0292 -213.221C55.7078 -212.678 55.7078 -211.799 57.0292 -211.257L785.987 87.9823C787.308 88.5248 789.451 88.5247 790.772 87.9823C792.094 87.4399 792.094 86.5604 790.772 86.0179Z" fill="white" fill-opacity="0.1"/>
<path opacity="0.8" d="M1127.15 335.223L862.365 226.528C861.044 225.986 858.901 225.986 857.58 226.528C856.259 227.071 856.259 227.95 857.58 228.492L1122.37 337.187C1123.69 337.73 1125.83 337.73 1127.15 337.187C1128.47 336.645 1128.47 335.766 1127.15 335.223Z" fill="white" fill-opacity="0.1"/>
<path opacity="0.38" d="M1809.3 475.419L1276.54 256.719C1275.22 256.177 1273.08 256.177 1271.76 256.719C1270.43 257.261 1270.43 258.141 1271.76 258.683L1804.52 477.383C1805.84 477.925 1807.98 477.925 1809.3 477.383C1810.62 476.841 1810.62 475.961 1809.3 475.419Z" fill="white" fill-opacity="0.1"/>
<path opacity="0.64" d="M1116.4 474.342L701.678 304.096C700.356 303.554 698.214 303.554 696.893 304.096C695.571 304.639 695.571 305.518 696.893 306.061L1111.62 476.306C1112.94 476.849 1115.08 476.849 1116.4 476.306C1117.72 475.764 1117.72 474.884 1116.4 474.342Z" fill="white" fill-opacity="0.1"/>
<path opacity="0.49" d="M743.366 383.252L673.182 354.441C671.86 353.899 669.718 353.899 668.396 354.441C667.075 354.984 667.075 355.863 668.396 356.406L738.581 385.217C739.902 385.759 742.044 385.759 743.366 385.217C744.687 384.674 744.687 383.795 743.366 383.252Z" fill="white" fill-opacity="0.1"/>
<path opacity="0.24" d="M1534.19 264.328L735.049 -63.7219C733.727 -64.2644 731.585 -64.2644 730.264 -63.7219C728.942 -63.1795 728.942 -62.3 730.264 -61.7575L1529.41 266.292C1530.73 266.834 1532.87 266.834 1534.19 266.292C1535.51 265.75 1535.51 264.87 1534.19 264.328Z" fill="white" fill-opacity="0.1"/>
<path opacity="0.28" d="M1442.87 802.821L366.186 360.838C364.864 360.295 362.722 360.295 361.4 360.838C360.079 361.38 360.079 362.26 361.4 362.802L1438.09 804.785C1439.41 805.327 1441.55 805.327 1442.87 804.785C1444.2 804.243 1444.2 803.363 1442.87 802.821Z" fill="white" fill-opacity="0.1"/>
<path opacity="0.27" d="M838.417 288.925L257.803 50.5813C256.481 50.0389 254.339 50.0389 253.018 50.5813C251.696 51.1238 251.696 52.0032 253.018 52.5457L833.631 290.889C834.953 291.432 837.095 291.431 838.417 290.889C839.738 290.347 839.738 289.467 838.417 288.925Z" fill="white" fill-opacity="0.1"/>
<path opacity="0.97" d="M1159.55 788.379L103.6 354.908C102.278 354.366 100.136 354.366 98.8144 354.908C97.493 355.451 97.493 356.33 98.8144 356.873L1154.77 790.343C1156.09 790.886 1158.23 790.886 1159.55 790.343C1160.87 789.801 1160.87 788.921 1159.55 788.379Z" fill="white" fill-opacity="0.1"/>
<path opacity="0.81" d="M1379.7 146.273L776.752 -101.238C775.431 -101.78 773.288 -101.78 771.967 -101.238C770.645 -100.695 770.645 -99.8156 771.967 -99.2732L1374.91 148.237C1376.23 148.78 1378.38 148.78 1379.7 148.237C1381.02 147.695 1381.02 146.815 1379.7 146.273Z" fill="white" fill-opacity="0.1"/>
<path opacity="0.91" d="M1283.77 338.4L353.834 -43.342C352.513 -43.8845 350.37 -43.8845 349.049 -43.342C347.727 -42.7996 347.727 -41.9201 349.049 -41.3777L1278.99 340.365C1280.31 340.907 1282.45 340.907 1283.77 340.365C1285.1 339.822 1285.1 338.943 1283.77 338.4Z" fill="white" fill-opacity="0.1"/>
</g>
</g>
</g>
<defs>
<filter id="filter0_dd_871_2938" x="0" y="0" width="1405" height="403" filterUnits="userSpaceOnUse" color-interpolation-filters="sRGB">
<feFlood flood-opacity="0" result="BackgroundImageFix"/>
<feColorMatrix in="SourceAlpha" type="matrix" values="0 0 0 0 0 0 0 0 0 0 0 0 0 0 0 0 0 0 127 0" result="hardAlpha"/>
<feMorphology radius="4" operator="erode" in="SourceAlpha" result="effect1_dropShadow_871_2938"/>
<feOffset dy="12"/>
<feGaussianBlur stdDeviation="8"/>
<feComposite in2="hardAlpha" operator="out"/>
<feColorMatrix type="matrix" values="0 0 0 0 0.0627451 0 0 0 0 0.0941176 0 0 0 0 0.156863 0 0 0 0.08 0"/>
<feBlend mode="normal" in2="BackgroundImageFix" result="effect1_dropShadow_871_2938"/>
<feColorMatrix in="SourceAlpha" type="matrix" values="0 0 0 0 0 0 0 0 0 0 0 0 0 0 0 0 0 0 127 0" result="hardAlpha"/>
<feMorphology radius="2" operator="erode" in="SourceAlpha" result="effect2_dropShadow_871_2938"/>
<feOffset dy="4"/>
<feGaussianBlur stdDeviation="3"/>
<feComposite in2="hardAlpha" operator="out"/>
<feColorMatrix type="matrix" values="0 0 0 0 0.0627451 0 0 0 0 0.0941176 0 0 0 0 0.156863 0 0 0 0.03 0"/>
<feBlend mode="normal" in2="effect1_dropShadow_871_2938" result="effect2_dropShadow_871_2938"/>
<feBlend mode="normal" in="SourceGraphic" in2="effect2_dropShadow_871_2938" result="shape"/>
</filter>
<clipPath id="clip0_871_2938">
<rect x="12" width="1381" height="379" rx="24" fill="white"/>
</clipPath>
</defs>
</svg>
