<svg width="26" height="26" viewBox="0 0 26 26" fill="none" xmlns="http://www.w3.org/2000/svg">
<g clip-path="url(#clip0_692_164)">
<path d="M18.0005 0.187523C13.6855 0.187523 10.1875 2.11652 10.1875 4.49952C10.1875 6.88252 13.6865 8.81252 18.0005 8.81252C22.3155 8.81252 25.8135 6.88252 25.8135 4.49952C25.8135 2.11652 22.3145 0.187523 18.0005 0.187523ZM25.8135 5.78052C25.8115 8.16352 22.3155 10.0935 18.0005 10.0935C13.6975 10.0935 10.2075 8.18452 10.1875 5.81252V7.49952C10.1875 8.51752 10.8395 9.44952 11.9075 10.1875C12.9875 10.4815 13.9495 10.8895 14.7505 11.4055C15.7435 11.6575 16.8355 11.8115 18.0005 11.8115C22.3155 11.8115 25.8135 9.88252 25.8135 7.49952V5.78052ZM25.8135 8.78052C25.8135 11.1635 22.3155 13.0935 18.0005 13.0935C17.4755 13.0935 16.9655 13.0545 16.4695 12.9995C16.8609 13.5266 17.1279 14.1355 17.2505 14.7805C17.4995 14.7945 17.7455 14.8115 18.0005 14.8115C22.3155 14.8115 25.8135 12.8825 25.8135 10.4995V8.78052ZM8.0005 11.1865C3.6855 11.1865 0.1875 13.1165 0.1875 15.4995C0.1875 17.8825 3.6865 19.8125 8.0005 19.8125C12.3155 19.8125 15.8135 17.8825 15.8135 15.4995C15.8135 13.1165 12.3145 11.1865 8.0005 11.1865ZM25.8135 11.7805C25.8115 14.1635 22.3155 16.0935 18.0005 16.0935C17.7495 16.0935 17.4955 16.0755 17.2505 16.0615C17.2395 16.1365 17.2335 16.2365 17.2195 16.3115C17.2695 16.4625 17.3125 16.6115 17.3125 16.7815V17.7815C17.5395 17.7925 17.7675 17.8115 18.0005 17.8115C22.3155 17.8115 25.8135 15.8825 25.8135 13.4995V11.7805ZM25.8135 14.7805C25.8115 17.1635 22.3155 19.0935 18.0005 19.0935C17.7495 19.0935 17.4955 19.0755 17.2505 19.0615C17.2395 19.1365 17.2335 19.2365 17.2195 19.3115C17.2695 19.4615 17.3125 19.6115 17.3125 19.7815V20.7815C17.5395 20.7925 17.7675 20.8115 18.0005 20.8115C22.3155 20.8115 25.8135 18.8825 25.8135 16.4995V14.7805ZM15.8135 16.7805C15.8115 19.1635 12.3155 21.0935 8.0005 21.0935C3.6975 21.0935 0.2075 19.1845 0.1875 16.8115V18.4995C0.1875 20.8825 3.6845 22.8125 8.0005 22.8125C12.3165 22.8125 15.8135 20.8825 15.8135 18.4995V16.7805ZM15.8135 19.7805C15.8115 22.1635 12.3155 24.0935 8.0005 24.0935C3.6975 24.0935 0.2075 22.1845 0.1875 19.8115V21.4995C0.1875 23.8825 3.6845 25.8125 8.0005 25.8125C12.3165 25.8125 15.8135 23.8825 15.8135 21.4995V19.7805Z" fill="#1687E5"/>
</g>
<defs>
<clipPath id="clip0_692_164">
<rect width="26" height="26" fill="white"/>
</clipPath>
</defs>
</svg>
