<svg width="26" height="26" viewBox="0 0 26 26" fill="none" xmlns="http://www.w3.org/2000/svg">
<path d="M6.4987 23.834C5.90286 23.834 5.39298 23.622 4.96903 23.1981C4.54509 22.7741 4.33275 22.2639 4.33203 21.6673V10.834C4.33203 10.2382 4.54436 9.72826 4.96903 9.30432C5.3937 8.88037 5.90359 8.66804 6.4987 8.66732H7.58203V6.50065C7.58203 5.00204 8.11034 3.72479 9.16695 2.6689C10.2236 1.61301 11.5008 1.08471 12.9987 1.08399C14.4966 1.08326 15.7742 1.61157 16.8315 2.6689C17.8889 3.72624 18.4168 5.00348 18.4154 6.50065V8.66732H19.4987C20.0945 8.66732 20.6048 8.87965 21.0294 9.30432C21.4541 9.72899 21.6661 10.2389 21.6654 10.834V21.6673C21.6654 22.2632 21.4534 22.7734 21.0294 23.1981C20.6055 23.6227 20.0953 23.8347 19.4987 23.834H6.4987ZM12.9987 18.4173C13.5945 18.4173 14.1048 18.2053 14.5294 17.7814C14.9541 17.3575 15.1661 16.8472 15.1654 16.2507C15.1646 15.6541 14.9527 15.1442 14.5294 14.721C14.1062 14.2978 13.596 14.0854 12.9987 14.084C12.4014 14.0825 11.8915 14.2949 11.469 14.721C11.0465 15.1471 10.8342 15.657 10.832 16.2507C10.8299 16.8443 11.0422 17.3546 11.469 17.7814C11.8959 18.2082 12.4058 18.4202 12.9987 18.4173ZM9.7487 8.66732H16.2487V6.50065C16.2487 5.59787 15.9327 4.83051 15.3008 4.19857C14.6688 3.56662 13.9015 3.25065 12.9987 3.25065C12.0959 3.25065 11.3286 3.56662 10.6966 4.19857C10.0647 4.83051 9.7487 5.59787 9.7487 6.50065V8.66732Z" fill="#1687E5"/>
</svg>
