<svg width="50" height="50" viewBox="0 0 50 50" fill="none" xmlns="http://www.w3.org/2000/svg">
<rect width="50" height="50" rx="10" fill="#FFD73E"/>
<path d="M29 27C30.3261 27 31.5979 27.5268 32.5355 28.4645C33.4732 29.4021 34 30.6739 34 32V33C34 33.5304 33.7893 34.0391 33.4142 34.4142C33.0391 34.7893 32.5304 35 32 35H18C17.4696 35 16.9609 34.7893 16.5858 34.4142C16.2107 34.0391 16 33.5304 16 33V32C16 30.6739 16.5268 29.4021 17.4645 28.4645C18.4021 27.5268 19.6739 27 21 27H29ZM34.414 22.081C34.5935 21.8997 34.8356 21.794 35.0905 21.7853C35.3455 21.7767 35.5942 21.8658 35.7856 22.0345C35.977 22.2031 36.0967 22.4386 36.1202 22.6926C36.1437 22.9467 36.0692 23.2001 35.912 23.401L35.828 23.496L33 26.324C32.8278 26.4962 32.5987 26.5996 32.3557 26.6149C32.1127 26.6302 31.8724 26.5563 31.68 26.407L31.586 26.324L30.172 24.91C29.9907 24.7305 29.885 24.4884 29.8763 24.2335C29.8677 23.9785 29.9568 23.7298 30.1255 23.5384C30.2941 23.347 30.5296 23.2273 30.7836 23.2038C31.0377 23.1803 31.2911 23.2548 31.492 23.412L31.586 23.496L32.293 24.203L34.414 22.081ZM25 15C26.3261 15 27.5979 15.5268 28.5355 16.4645C29.4732 17.4021 30 18.6739 30 20C30 21.3261 29.4732 22.5979 28.5355 23.5355C27.5979 24.4732 26.3261 25 25 25C23.6739 25 22.4021 24.4732 21.4645 23.5355C20.5268 22.5979 20 21.3261 20 20C20 18.6739 20.5268 17.4021 21.4645 16.4645C22.4021 15.5268 23.6739 15 25 15Z" fill="#B99401"/>
</svg>
