<svg width="18" height="19" viewBox="0 0 18 19" fill="none" xmlns="http://www.w3.org/2000/svg">
<path d="M14.832 17.6007L5.76628 14.2214C5.49793 14.1267 5.25773 13.9659 5.0678 13.754C4.87788 13.542 4.74432 13.2857 4.67944 13.0086C4.61456 12.7315 4.62043 12.4425 4.69652 12.1683C4.77261 11.894 4.91647 11.6434 5.11486 11.4393L10.8013 5.75288C11.0113 5.556 11.2677 5.41534 11.5466 5.34394C11.8255 5.27255 12.1179 5.27273 12.3967 5.34446C12.6756 5.41619 12.9318 5.55716 13.1416 5.7543C13.3514 5.95143 13.508 6.19835 13.597 6.47216L16.9627 15.5379C17.0562 15.8316 17.0659 16.1455 16.9906 16.4444C16.9153 16.7433 16.7581 17.0153 16.5367 17.2297C16.3152 17.444 16.0383 17.5924 15.7372 17.6579C15.436 17.7235 15.1225 17.7037 14.832 17.6007V17.6007Z" stroke="#000001" stroke-linecap="round" stroke-linejoin="round"/>
<path d="M1.78125 9.19914C2.38391 8.86283 3.08967 8.76131 3.76268 8.91414" stroke="#000001" stroke-linecap="round" stroke-linejoin="round"/>
<path d="M5.97501 6.49081C5.5907 5.91144 5.43142 5.21157 5.52716 4.52295" stroke="#000001" stroke-linecap="round" stroke-linejoin="round"/>
<path d="M7.99789 0.5C7.52222 1.95713 7.58482 3.53652 8.17432 4.95143" stroke="#000001" stroke-linecap="round" stroke-linejoin="round"/>
<path d="M1.5 6.52295C2.05228 6.52295 2.5 6.07523 2.5 5.52295C2.5 4.97066 2.05228 4.52295 1.5 4.52295C0.947715 4.52295 0.5 4.97066 0.5 5.52295C0.5 6.07523 0.947715 6.52295 1.5 6.52295Z" stroke="#000001" stroke-linecap="round" stroke-linejoin="round"/>
</svg>
