<svg width="24" height="24" viewBox="0 0 24 24" fill="none" xmlns="http://www.w3.org/2000/svg">
<path d="M2 5C2 4.73478 2.10536 4.48043 2.29289 4.29289C2.48043 4.10536 2.73478 4 3 4H21C21.2652 4 21.5196 4.10536 21.7071 4.29289C21.8946 4.48043 22 4.73478 22 5V19C22 19.2652 21.8946 19.5196 21.7071 19.7071C21.5196 19.8946 21.2652 20 21 20H3C2.73478 20 2.48043 19.8946 2.29289 19.7071C2.10536 19.5196 2 19.2652 2 19V5Z" stroke="#1687E5" stroke-width="2" stroke-linejoin="round"/>
<path d="M18 4V20M6 4V20M19 9H22M19 15H22M2 9H5M2 8V10M4.5 4H7.5M4.5 20H7.5M16.5 4H19.5M16.5 20H19.5M2 15H5M2 14V16M22 14V16M22 8V10" stroke="#1687E5" stroke-width="2" stroke-linecap="round" stroke-linejoin="round"/>
<path d="M10.5 9.5L14.5 12L10.5 14.5V9.5Z" stroke="#1687E5" stroke-width="2" stroke-linejoin="round"/>
</svg>
