<svg width="21" height="20" viewBox="0 0 21 20" fill="none" xmlns="http://www.w3.org/2000/svg">
<path d="M7.32812 3H13.1719V3.00293H13.6719C14.6871 3.00296 15.6609 3.40708 16.3789 4.125C17.0967 4.84291 17.5 5.81682 17.5 6.83203V13.1719C17.5 14.1871 17.0968 15.161 16.3789 15.8789C15.661 16.5968 14.6871 17 13.6719 17H7.32812C6.31284 17 5.33899 16.5968 4.62109 15.8789C3.90321 15.161 3.50005 14.1871 3.5 13.1719V6.82812C3.50005 5.81284 3.9032 4.83899 4.62109 4.12109C5.33899 3.40319 6.31284 3.00005 7.32812 3ZM7.25195 3.41895C6.41283 3.41895 5.60543 3.73144 4.98633 4.29199L4.86523 4.40723C4.23236 5.0401 3.87702 5.8989 3.87695 6.79395V13.2871C3.87732 14.1819 4.23255 15.0401 4.86523 15.6729C5.49809 16.3057 6.35702 16.6608 7.25195 16.6611H13.7441C14.6389 16.6616 15.4975 16.3069 16.1309 15.6748C16.7639 15.0429 17.1207 14.1855 17.1221 13.291V13.29L17.1201 6.79395C17.1201 6.35075 17.033 5.91145 16.8633 5.50195C16.6936 5.09247 16.4443 4.72055 16.1309 4.40723C15.8175 4.09392 15.4455 3.84529 15.0361 3.67578C14.6266 3.50626 14.1874 3.41884 13.7441 3.41895H7.25195Z" fill="black" stroke="#1687E5"/>
<path d="M10.4971 6.64648C10.9428 6.64639 11.3851 6.7338 11.7969 6.9043C12.2086 7.0748 12.5823 7.32555 12.8975 7.64062C13.2127 7.95579 13.4632 8.32944 13.6338 8.74121C13.8044 9.15286 13.8916 9.59437 13.8916 10.04C13.8916 10.7113 13.6932 11.3677 13.3203 11.9258C12.9474 12.4839 12.4169 12.9189 11.7969 13.1758C11.177 13.4325 10.495 13.4999 9.83691 13.3691C9.17865 13.2382 8.57333 12.915 8.09863 12.4404C7.62407 11.966 7.30098 11.3613 7.16992 10.7031C7.03891 10.0449 7.10562 9.36225 7.3623 8.74219C7.58695 8.19956 7.94858 7.72602 8.40918 7.36621L8.6123 7.21875C9.17012 6.84582 9.82604 6.64672 10.4971 6.64648ZM11.6553 7.24707C11.103 7.01828 10.4954 6.95778 9.90918 7.07422C9.32268 7.1908 8.78326 7.47866 8.36035 7.90137C7.93742 8.32415 7.64995 8.86369 7.5332 9.4502C7.4165 10.0364 7.47563 10.644 7.7041 11.1963C7.93275 11.7487 8.32043 12.2214 8.81738 12.5537C9.31449 12.8861 9.89921 13.0642 10.4971 13.0645C10.8941 13.0646 11.2874 12.9858 11.6543 12.834C12.0213 12.6821 12.3549 12.4595 12.6357 12.1787C12.9166 11.8979 13.14 11.5642 13.292 11.1973C13.4439 10.8305 13.5225 10.4371 13.5225 10.04C13.5224 9.44217 13.3448 8.8575 13.0127 8.36035C12.6805 7.86313 12.2078 7.47592 11.6553 7.24707Z" fill="black" stroke="#1687E5"/>
<path d="M14.5225 5.59082C14.6303 5.59092 14.7342 5.63369 14.8105 5.70996C14.8869 5.78636 14.9297 5.89015 14.9297 5.99805C14.9297 6.0786 14.9061 6.15768 14.8613 6.22461C14.8167 6.29146 14.7523 6.34313 14.6777 6.37402C14.6034 6.40473 14.5213 6.41319 14.4424 6.39746H14.4434C14.3842 6.38565 14.3284 6.36083 14.2803 6.3252L14.2344 6.28613C14.1774 6.2291 14.1387 6.15624 14.123 6.07715C14.1074 5.99809 14.1157 5.91607 14.1465 5.8418C14.1773 5.76755 14.2298 5.70389 14.2969 5.65918C14.3637 5.61469 14.4421 5.59084 14.5225 5.59082Z" fill="black" stroke="#1687E5"/>
</svg>
