<svg width="21" height="20" viewBox="0 0 21 20" fill="none" xmlns="http://www.w3.org/2000/svg">
<path d="M17.3337 8.41634C17.3337 8.59967 17.1837 8.75051 17.0003 8.74134C16.0208 8.69223 15.0642 8.42761 14.1987 7.96634C13.9645 7.84134 13.667 8.00384 13.667 8.26967V12.9163C13.6669 13.891 13.382 14.8445 12.8472 15.6593C12.3124 16.4742 11.5512 17.1151 10.657 17.503C9.76282 17.8909 8.77476 18.009 7.81434 17.8428C6.85393 17.6766 5.96303 17.2333 5.25124 16.5674C4.53944 15.9016 4.03778 15.0422 3.80797 14.095C3.57815 13.1478 3.63019 12.154 3.9577 11.236C4.28521 10.318 4.87389 9.5157 5.65135 8.92783C6.42881 8.33997 7.36113 7.99215 8.33366 7.92717C8.37712 7.92487 8.42059 7.93156 8.46135 7.94681C8.50212 7.96206 8.5393 7.98555 8.57058 8.01581C8.60186 8.04608 8.62656 8.08246 8.64315 8.1227C8.65974 8.16294 8.66786 8.20616 8.66699 8.24967V10.583C8.66699 10.7663 8.51699 10.9138 8.33533 10.9438C7.95923 11.0071 7.60906 11.1765 7.32609 11.4322C7.04313 11.6879 6.83917 12.0192 6.73827 12.387C6.63736 12.7548 6.64372 13.1437 6.75658 13.508C6.86945 13.8723 7.08411 14.1968 7.37528 14.4431C7.66644 14.6894 8.02197 14.8473 8.39993 14.8982C8.77789 14.9492 9.16253 14.891 9.5085 14.7305C9.85448 14.57 10.1474 14.314 10.3526 13.9926C10.5579 13.6711 10.667 13.2977 10.667 12.9163V2.41634C10.667 2.32794 10.7021 2.24315 10.7646 2.18064C10.8271 2.11813 10.9119 2.08301 11.0003 2.08301H13.3337C13.4228 2.08528 13.5079 2.12069 13.5723 2.18233C13.6367 2.24397 13.6758 2.3274 13.682 2.41634C13.7599 3.27028 14.1347 4.06989 14.7411 4.67615C15.3475 5.28241 16.1472 5.65696 17.0012 5.73467C17.1845 5.75134 17.3345 5.89884 17.3345 6.08301L17.3337 8.41634Z" stroke="black" stroke-width="1.25" stroke-linecap="round" stroke-linejoin="round"/>
</svg>
