<svg width="21" height="20" viewBox="0 0 21 20" fill="none" xmlns="http://www.w3.org/2000/svg">
<path d="M13.6717 2.5H7.32831C6.18035 2.5 5.07944 2.95601 4.26772 3.76772C3.45602 4.57944 3 5.68035 3 6.82831V13.1717C3 14.3196 3.45602 15.4206 4.26772 16.2323C5.07944 17.044 6.18035 17.5 7.32831 17.5H13.6717C14.8196 17.5 15.9206 17.044 16.7323 16.2323C17.544 15.4206 18 14.3196 18 13.1717V6.83162C18 5.68368 17.544 4.58276 16.7323 3.77106C15.9206 2.95934 14.8196 2.50333 13.6717 2.50333V2.5ZM16.6216 13.2899C16.6205 14.0522 16.3168 14.7829 15.7772 15.3213C15.2377 15.8598 14.5064 16.162 13.7441 16.1616H7.25168C6.48928 16.1613 5.75815 15.8584 5.21903 15.3193C4.67992 14.7801 4.37695 14.049 4.37673 13.2866V6.79419C4.37673 6.03166 4.67962 5.3004 5.21879 4.76124C5.75796 4.22207 6.48921 3.91917 7.25168 3.91917H13.7441C14.1217 3.91907 14.4957 3.99335 14.8446 4.13778C15.1935 4.28222 15.5106 4.49397 15.7776 4.76094C16.0446 5.02793 16.2565 5.34489 16.401 5.69376C16.5456 6.04262 16.6199 6.41656 16.6199 6.79419L16.6216 13.2899Z" fill="black"/>
<path d="M10.4974 6.14648C9.72736 6.14665 8.97461 6.37513 8.33442 6.80313C7.69417 7.23107 7.19524 7.83925 6.90068 8.55075C6.60607 9.26225 6.52908 10.0452 6.67941 10.8004C6.82974 11.5557 7.20068 12.2494 7.74524 12.7939C8.28986 13.3384 8.98367 13.7091 9.73892 13.8593C10.4942 14.0095 11.2771 13.9323 11.9885 13.6376C12.7 13.3429 13.3081 12.8438 13.7359 12.2034C14.1637 11.5631 14.392 10.8104 14.392 10.0403C14.392 9.52888 14.2914 9.02244 14.0956 8.55C13.8999 8.0775 13.613 7.64825 13.2513 7.28663C12.8897 6.92507 12.4603 6.63825 11.9878 6.44263C11.5153 6.24701 11.0089 6.14638 10.4974 6.14648ZM10.4974 12.564C9.99836 12.5638 9.51049 12.4157 9.09555 12.1383C8.68067 11.8609 8.3573 11.4666 8.16642 11.0055C7.97555 10.5443 7.92567 10.0369 8.02317 9.54744C8.12061 9.05794 8.36105 8.60832 8.71405 8.25544C9.06705 7.90257 9.51667 7.66232 10.0062 7.565C10.4957 7.46769 11.0032 7.51769 11.4642 7.70875C11.9254 7.89975 12.3195 8.22325 12.5967 8.63825C12.874 9.05325 13.022 9.54119 13.022 10.0403C13.022 10.3718 12.9567 10.7 12.8298 11.0063C12.7029 11.3125 12.517 11.5908 12.2825 11.8251C12.0481 12.0595 11.7698 12.2454 11.4635 12.3721C11.1572 12.4989 10.8289 12.5641 10.4974 12.564Z" fill="black"/>
<path d="M14.5234 5.09082C14.3439 5.09066 14.1684 5.14373 14.019 5.24332C13.8697 5.34291 13.7533 5.48455 13.6845 5.65032C13.6157 5.81609 13.5977 5.99854 13.6325 6.17459C13.6675 6.35066 13.7538 6.51235 13.8807 6.63935C14.0075 6.76628 14.1692 6.85278 14.3452 6.88791C14.5212 6.92297 14.7037 6.90503 14.8695 6.83641C15.0354 6.76772 15.1771 6.65147 15.2768 6.50222C15.3765 6.35303 15.4298 6.17758 15.4298 5.9981C15.4298 5.75761 15.3343 5.52698 15.1644 5.35685C14.9944 5.18673 14.7638 5.09105 14.5234 5.09082Z" fill="black"/>
</svg>
