<svg width="50" height="50" viewBox="0 0 50 50" fill="none" xmlns="http://www.w3.org/2000/svg">
<circle cx="25" cy="25" r="25" fill="#E4F3FF"/>
<g clip-path="url(#clip0_997_956)">
<path d="M27.1797 20.6359H15.1797C13.9797 20.6359 13 21.6156 13 22.8203V34.8203C13 36.0203 13.9797 37 15.1797 37H27.1797C28.3844 37 29.3594 36.0203 29.3594 34.8203V22.8203C29.3641 21.6156 28.3844 20.6359 27.1797 20.6359ZM30.4562 26.0922V31.5484L37 34.8203V22.8203L30.4562 26.0922ZM16.2719 19.5438C18.0813 19.5438 19.5438 18.0766 19.5438 16.2719C19.5438 14.4672 18.0813 13 16.2719 13C14.4672 13 13 14.4672 13 16.2719C13 18.0766 14.4672 19.5438 16.2719 19.5438ZM26.0922 13C24.2828 13 22.8203 14.4672 22.8203 16.2719C22.8203 18.0766 24.2875 19.5438 26.0922 19.5438C27.9016 19.5438 29.3641 18.0766 29.3641 16.2719C29.3641 14.4672 27.8969 13 26.0922 13Z" fill="#1687E5"/>
</g>
<defs>
<clipPath id="clip0_997_956">
<rect width="24" height="24" fill="white" transform="translate(13 13)"/>
</clipPath>
</defs>
</svg>
