<svg xmlns="http://www.w3.org/2000/svg" xmlns:xlink="http://www.w3.org/1999/xlink" width="500" zoomAndPan="magnify" viewBox="0 0 375 374.999991" height="500" preserveAspectRatio="xMidYMid meet" version="1.0"><defs><g/></defs><g fill="#000000" fill-opacity="1"><g transform="translate(177.63241, 307.342181)"><g><path d="M -39.5625 16.640625 L -35.1875 17.71875 C -35.25 19.476562 -34.914062 21.050781 -34.1875 22.4375 C -33.46875 23.832031 -32.472656 24.992188 -31.203125 25.921875 C -29.941406 26.847656 -28.507812 27.507812 -26.90625 27.90625 C -24.71875 28.4375 -22.601562 28.367188 -20.5625 27.703125 C -18.519531 27.035156 -16.710938 25.753906 -15.140625 23.859375 C -13.578125 21.960938 -12.410156 19.445312 -11.640625 16.3125 C -10.867188 13.1875 -10.738281 10.414062 -11.25 8 C -11.769531 5.59375 -12.773438 3.613281 -14.265625 2.0625 C -15.765625 0.519531 -17.609375 -0.515625 -19.796875 -1.046875 C -21.398438 -1.441406 -22.976562 -1.515625 -24.53125 -1.265625 C -26.09375 -1.015625 -27.515625 -0.445312 -28.796875 0.4375 C -30.078125 1.332031 -31.097656 2.578125 -31.859375 4.171875 L -36.234375 3.09375 C -35.179688 0.726562 -33.75 -1.160156 -31.9375 -2.578125 C -30.132812 -4.003906 -28.097656 -4.9375 -25.828125 -5.375 C -23.566406 -5.8125 -21.222656 -5.734375 -18.796875 -5.140625 C -15.710938 -4.378906 -13.15625 -2.953125 -11.125 -0.859375 C -9.101562 1.234375 -7.738281 3.835938 -7.03125 6.953125 C -6.332031 10.078125 -6.453125 13.546875 -7.390625 17.359375 C -8.328125 21.171875 -9.828125 24.296875 -11.890625 26.734375 C -13.953125 29.171875 -16.363281 30.847656 -19.125 31.765625 C -21.894531 32.679688 -24.820312 32.757812 -27.90625 32 C -30.332031 31.40625 -32.445312 30.390625 -34.25 28.953125 C -36.0625 27.523438 -37.4375 25.757812 -38.375 23.65625 C -39.320312 21.5625 -39.71875 19.222656 -39.5625 16.640625 Z M -39.5625 16.640625 "/></g></g></g><g fill="#000000" fill-opacity="1"><g transform="translate(139.923653, 297.44577)"><g><path d="M -3.84375 -2.359375 L -23.328125 29.375 L -34.046875 22.796875 C -36.523438 21.273438 -38.296875 19.601562 -39.359375 17.78125 C -40.429688 15.957031 -40.898438 14.078125 -40.765625 12.140625 C -40.640625 10.210938 -40 8.3125 -38.84375 6.4375 C -37.550781 4.332031 -35.941406 2.789062 -34.015625 1.8125 C -32.097656 0.84375 -29.910156 0.632812 -27.453125 1.1875 L -26.578125 -16.3125 L -22.109375 -13.578125 L -23.0625 2.9375 C -22.789062 3.082031 -22.515625 3.242188 -22.234375 3.421875 L -15.296875 7.671875 L -7.6875 -4.71875 Z M -17.421875 11.140625 L -24.234375 6.953125 C -26.773438 5.398438 -28.921875 4.835938 -30.671875 5.265625 C -32.429688 5.691406 -33.894531 6.859375 -35.0625 8.765625 C -36.238281 10.671875 -36.632812 12.535156 -36.25 14.359375 C -35.875 16.179688 -34.398438 17.882812 -31.828125 19.46875 L -25.078125 23.609375 Z M -17.421875 11.140625 "/></g></g></g><g fill="#000000" fill-opacity="1"><g transform="translate(110.434728, 278.797082)"><g><path d="M -3.03125 -3.34375 L -30.671875 21.609375 L -45.71875 4.9375 L -42.75 2.25 L -30.71875 15.578125 L -21.375 7.15625 L -32.625 -5.3125 L -29.65625 -8 L -18.40625 4.46875 L -9.015625 -4 L -21.234375 -17.546875 L -18.265625 -20.234375 Z M -3.03125 -3.34375 "/></g></g></g><g fill="#000000" fill-opacity="1"><g transform="translate(88.509591, 254.48798)"><g><path d="M -2.578125 -5.453125 L -0.5625 -1.1875 L -40.0625 2.375 L -42.046875 -1.8125 L -14.234375 -30.09375 L -12.21875 -25.828125 L -20.140625 -17.921875 L -13.71875 -4.328125 Z M -17.953125 -3.90625 L -23.15625 -14.9375 L -35.796875 -2.375 L -35.65625 -2.109375 Z M -17.953125 -3.90625 "/></g></g></g><g fill="#000000" fill-opacity="1"><g transform="translate(73.271466, 221.270069)"><g><path d="M -33.25 2.21875 L -37.203125 2.78125 L -41.125 -24.875 L -37.171875 -25.4375 L -35.53125 -13.84375 L -2.625 -18.5 L -1.984375 -14.03125 L -34.890625 -9.375 Z M -33.25 2.21875 "/></g></g></g><g fill="#000000" fill-opacity="1"><g transform="translate(68.829313, 186.529646)"><g><path d="M 0.65625 -4.46875 L -36.1875 -9.875 L -32.9375 -32.09375 L -28.984375 -31.5 L -31.578125 -13.734375 L -19.125 -11.921875 L -16.6875 -28.546875 L -12.734375 -27.96875 L -15.171875 -11.34375 L -2.640625 -9.5 L 0 -27.5625 L 3.953125 -26.984375 Z M 0.65625 -4.46875 "/></g></g></g><g fill="#000000" fill-opacity="1"><g transform="translate(74.956231, 153.270604)"><g/></g></g><g fill="#000000" fill-opacity="1"><g transform="translate(81.366154, 136.252416)"><g><path d="M 0.34375 -13.484375 C -0.4375 -12.234375 -1.453125 -11.285156 -2.703125 -10.640625 C -3.953125 -9.992188 -5.28125 -9.679688 -6.6875 -9.703125 C -8.101562 -9.734375 -9.429688 -10.132812 -10.671875 -10.90625 C -11.929688 -11.6875 -12.882812 -12.695312 -13.53125 -13.9375 C -14.175781 -15.1875 -14.488281 -16.515625 -14.46875 -17.921875 C -14.445312 -19.335938 -14.046875 -20.671875 -13.265625 -21.921875 C -12.492188 -23.171875 -11.484375 -24.117188 -10.234375 -24.765625 C -8.984375 -25.410156 -7.65625 -25.71875 -6.25 -25.6875 C -4.84375 -25.664062 -3.507812 -25.265625 -2.25 -24.484375 C -1.007812 -23.710938 -0.0664062 -22.703125 0.578125 -21.453125 C 1.234375 -20.210938 1.550781 -18.882812 1.53125 -17.46875 C 1.507812 -16.0625 1.113281 -14.734375 0.34375 -13.484375 Z M 0.34375 -13.484375 "/></g></g></g><g fill="#000000" fill-opacity="1"><g transform="translate(96.246951, 113.748197)"><g/></g></g><g fill="#000000" fill-opacity="1"><g transform="translate(106.231613, 99.888764)"><g><path d="M 9.65625 -5.796875 L -18.203125 -32.5 L -14.28125 -34.859375 L 8 -12.84375 L 8.296875 -13.015625 L -0.5 -43.109375 L 3.875 -45.734375 L 26.265625 -23.78125 L 26.578125 -23.984375 L 17.65625 -53.984375 L 21.59375 -56.34375 L 31.984375 -19.171875 L 28 -16.78125 L 5.71875 -38.015625 L 5.453125 -37.859375 L 13.65625 -8.1875 Z M 9.65625 -5.796875 "/></g></g></g><g fill="#000000" fill-opacity="1"><g transform="translate(149.382971, 75.69091)"><g><path d="M 5.9375 -1.09375 L 1.296875 -0.234375 L 8.03125 -39.328125 L 12.59375 -40.15625 L 32.75 -6 L 28.109375 -5.140625 L 22.515625 -14.84375 L 7.71875 -12.140625 Z M 8.390625 -16.328125 L 20.390625 -18.53125 L 11.53125 -33.96875 L 11.234375 -33.921875 Z M 8.390625 -16.328125 "/></g></g></g><g fill="#000000" fill-opacity="1"><g transform="translate(185.404597, 69.526705)"><g><path d="M 6.421875 -32.703125 L 6.90625 -36.671875 L 34.625 -33.328125 L 34.140625 -29.359375 L 22.515625 -30.765625 L 18.546875 2.234375 L 14.0625 1.6875 L 18.03125 -31.3125 Z M 6.421875 -32.703125 "/></g></g></g><g fill="#000000" fill-opacity="1"><g transform="translate(219.885111, 73.629493)"><g><path d="M 42.015625 -8.875 L 37.90625 -10.765625 C 38.28125 -12.484375 38.25 -14.085938 37.8125 -15.578125 C 37.375 -17.078125 36.617188 -18.40625 35.546875 -19.5625 C 34.472656 -20.71875 33.1875 -21.640625 31.6875 -22.328125 C 29.644531 -23.265625 27.554688 -23.59375 25.421875 -23.3125 C 23.296875 -23.039062 21.28125 -22.125 19.375 -20.5625 C 17.476562 -19 15.859375 -16.75 14.515625 -13.8125 C 13.171875 -10.894531 12.519531 -8.203125 12.5625 -5.734375 C 12.613281 -3.265625 13.226562 -1.132812 14.40625 0.65625 C 15.59375 2.457031 17.207031 3.828125 19.25 4.765625 C 20.75 5.453125 22.285156 5.820312 23.859375 5.875 C 25.441406 5.925781 26.941406 5.632812 28.359375 5 C 29.785156 4.363281 31.023438 3.335938 32.078125 1.921875 L 36.1875 3.8125 C 34.695312 5.9375 32.925781 7.523438 30.875 8.578125 C 28.832031 9.628906 26.65625 10.15625 24.34375 10.15625 C 22.039062 10.15625 19.753906 9.632812 17.484375 8.59375 C 14.597656 7.269531 12.359375 5.382812 10.765625 2.9375 C 9.171875 0.5 8.320312 -2.3125 8.21875 -5.5 C 8.125 -8.695312 8.894531 -12.078125 10.53125 -15.640625 C 12.164062 -19.210938 14.222656 -22 16.703125 -24 C 19.191406 -26.007812 21.882812 -27.203125 24.78125 -27.578125 C 27.675781 -27.960938 30.566406 -27.492188 33.453125 -26.171875 C 35.722656 -25.128906 37.609375 -23.734375 39.109375 -21.984375 C 40.617188 -20.234375 41.632812 -18.234375 42.15625 -15.984375 C 42.6875 -13.742188 42.640625 -11.375 42.015625 -8.875 Z M 42.015625 -8.875 "/></g></g></g><g fill="#000000" fill-opacity="1"><g transform="translate(255.031532, 89.990541)"><g><path d="M 3.28125 3.109375 L 28.921875 -23.890625 L 32.171875 -20.796875 L 20.75 -8.78125 L 35.140625 4.890625 L 46.5625 -7.125 L 49.84375 -4.015625 L 24.203125 22.984375 L 20.921875 19.875 L 32.390625 7.796875 L 18 -5.875 L 6.53125 6.203125 Z M 3.28125 3.109375 "/></g></g></g><g fill="#000000" fill-opacity="1"><g transform="translate(283.211704, 119.192489)"><g/></g></g><g fill="#000000" fill-opacity="1"><g transform="translate(293.014885, 134.508248)"><g><path d="M 10.625 8.328125 C 10.082031 6.960938 9.925781 5.582031 10.15625 4.1875 C 10.382812 2.789062 10.929688 1.535156 11.796875 0.421875 C 12.660156 -0.679688 13.769531 -1.5 15.125 -2.03125 C 16.5 -2.570312 17.878906 -2.726562 19.265625 -2.5 C 20.660156 -2.28125 21.914062 -1.738281 23.03125 -0.875 C 24.144531 -0.0078125 24.972656 1.101562 25.515625 2.46875 C 26.046875 3.832031 26.195312 5.207031 25.96875 6.59375 C 25.738281 7.988281 25.191406 9.242188 24.328125 10.359375 C 23.472656 11.472656 22.359375 12.300781 20.984375 12.84375 C 19.628906 13.375 18.253906 13.523438 16.859375 13.296875 C 15.460938 13.066406 14.207031 12.519531 13.09375 11.65625 C 11.976562 10.800781 11.15625 9.691406 10.625 8.328125 Z M 10.625 8.328125 "/></g></g></g><g fill="#000000" fill-opacity="1"><g transform="translate(302.166523, 159.886832)"><g/></g></g><g fill="#000000" fill-opacity="1"><g transform="translate(305.919447, 177.27467)"><g><path d="M -0.15625 4.515625 L 37.0625 5.8125 L 36.28125 28.25 L 32.28125 28.109375 L 32.90625 10.171875 L 20.328125 9.734375 L 19.75 26.515625 L 15.75 26.375 L 16.328125 9.59375 L 3.6875 9.15625 L 3.046875 27.390625 L -0.953125 27.25 Z M -0.15625 4.515625 "/></g></g></g><g fill="#000000" fill-opacity="1"><g transform="translate(304.761461, 209.989496)"><g><path d="M -1.9375 5.703125 L -0.421875 1.25 L 30.4375 26.15625 L 28.9375 30.546875 L -10.703125 31.53125 L -9.1875 27.0625 L 2 26.90625 L 6.84375 12.65625 Z M 10.171875 15.28125 L 6.25 26.828125 L 24.0625 26.609375 L 24.15625 26.328125 Z M 10.171875 15.28125 "/></g></g></g><g fill="#000000" fill-opacity="1"><g transform="translate(292.593931, 244.454638)"><g><path d="M -2.65625 3.65625 L 27.46875 25.53125 L 20.078125 35.703125 C 18.367188 38.054688 16.566406 39.695312 14.671875 40.625 C 12.785156 41.550781 10.882812 41.867188 8.96875 41.578125 C 7.050781 41.296875 5.203125 40.507812 3.421875 39.21875 C 1.421875 37.769531 0.0078125 36.046875 -0.8125 34.046875 C -1.632812 32.054688 -1.679688 29.863281 -0.953125 27.46875 L -18.328125 25.234375 L -15.25 21 L 1.140625 23.21875 C 1.304688 22.957031 1.488281 22.695312 1.6875 22.4375 L 6.46875 15.84375 L -5.296875 7.296875 Z M 9.765625 18.234375 L 5.0625 24.703125 C 3.3125 27.117188 2.582031 29.21875 2.875 31 C 3.175781 32.78125 4.226562 34.320312 6.03125 35.625 C 7.84375 36.945312 9.671875 37.488281 11.515625 37.25 C 13.359375 37.019531 15.164062 35.679688 16.9375 33.234375 L 21.59375 26.828125 Z M 9.765625 18.234375 "/></g></g></g><g fill="#000000" fill-opacity="1"><g transform="translate(272.444399, 272.503588)"><g><path d="M -5.65625 50.125 L -27.53125 20 L -24.015625 17.4375 L 9.578125 29.15625 L 9.875 28.953125 L -7.296875 5.296875 L -3.65625 2.65625 L 18.21875 32.78125 L 14.6875 35.34375 L -19 23.578125 L -19.296875 23.796875 L -2.078125 47.515625 Z M -5.65625 50.125 "/></g></g></g><g fill="#000000" fill-opacity="1"><g transform="translate(238.076371, 295.200495)"><g/></g></g><g fill="#000000" fill-opacity="1"><g transform="translate(221.208577, 302.011995)"><g><path d="M -10.15625 8.890625 C -8.707031 8.617188 -7.316406 8.722656 -5.984375 9.203125 C -4.660156 9.691406 -3.53125 10.460938 -2.59375 11.515625 C -1.664062 12.578125 -1.066406 13.820312 -0.796875 15.25 C -0.515625 16.707031 -0.609375 18.09375 -1.078125 19.40625 C -1.554688 20.726562 -2.320312 21.859375 -3.375 22.796875 C -4.4375 23.734375 -5.691406 24.335938 -7.140625 24.609375 C -8.578125 24.890625 -9.957031 24.785156 -11.28125 24.296875 C -12.601562 23.816406 -13.734375 23.050781 -14.671875 22 C -15.609375 20.957031 -16.21875 19.707031 -16.5 18.25 C -16.769531 16.820312 -16.664062 15.441406 -16.1875 14.109375 C -15.707031 12.785156 -14.941406 11.65625 -13.890625 10.71875 C -12.835938 9.78125 -11.59375 9.171875 -10.15625 8.890625 Z M -10.15625 8.890625 "/></g></g></g></svg>