<?xml version="1.0" encoding="UTF-8"?>
<svg id="Layer_2" data-name="Layer 2" xmlns="http://www.w3.org/2000/svg" viewBox="0 0 1280.09 670.4">
  <defs>
    <style>
      .cls-1 {
        fill: #1687e5;
      }

      .cls-2 {
        fill: #692f96;
      }
    </style>
  </defs>
  <g id="Logo_Final" data-name="Logo Final">
    <path class="cls-2" d="M4.39,270.27c0-30.36-.37-57.35-1.1-80.95-.74-23.6-1.84-47.28-3.29-71.07,6.22.74,12.98,1.37,20.3,1.92,7.32.55,15.55.82,24.7.82,12.8,0,26.07-.45,39.79-1.37,13.72-.91,27.17-1.37,40.34-1.37,25.97,0,46.28,1.92,60.92,5.76,14.63,3.84,26.15,9.42,34.57,16.74,11.7,9.52,20.31,20.13,25.79,31.83,5.49,11.71,8.23,25.79,8.23,42.26,0,20.85-3.48,38.78-10.43,53.78-6.95,15.01-16.74,27.16-29.36,36.5-12.62,9.33-27.53,16.19-44.73,20.58-17.2,4.39-36.04,6.59-56.53,6.59h-27.99c0,27.44.27,54.79.82,82.04.55,27.26,1.73,54.24,3.57,80.95H0c1.46-22.68,2.55-45.82,3.29-69.42.73-23.6,1.1-50.58,1.1-80.95v-74.64ZM167.93,223.62c0-13.9-1.56-25.6-4.67-35.12-3.11-9.51-7.32-17.1-12.62-22.78-5.31-5.67-11.52-9.78-18.66-12.35-7.13-2.56-14.54-3.84-22.22-3.84h-18.11c-1.83,0-3.48.19-4.94.55-.37,26.34-.64,52.23-.82,77.65-.19,25.43-.27,50.95-.27,76.56,9.14,0,18.56-.91,28.26-2.74,9.69-1.83,18.56-5.57,26.62-11.25,8.04-5.67,14.63-13.81,19.75-24.42,5.12-10.61,7.69-24.7,7.69-42.26Z"/>
    <path class="cls-2" d="M276.84,352.5c0-22.31-.27-43.26-.82-62.84-.55-19.57-1.74-39.24-3.57-58.99,5.12.74,11.16,1.37,18.11,1.92,6.95.55,14.63.82,23.05.82,17.19,0,30.91-.91,41.16-2.74-1.84,19.76-3.02,39.43-3.57,58.99-.55,19.58-.82,40.53-.82,62.84v21.95c0,22.32.27,43.35.82,63.11.55,19.76,1.73,38.78,3.57,57.07h-82.32c1.83-18.29,3.02-37.32,3.57-57.07.55-19.76.82-40.79.82-63.11v-21.95Z"/>
    <path class="cls-2" d="M440.55,449.36c-9.7,15.56-18.93,30.65-27.71,45.27h-47.2c2.56-2.19,7.41-7.86,14.54-17.01,7.14-9.14,15-19.66,23.6-31.56,8.59-11.88,17.37-24.05,26.34-36.49,8.96-12.43,16.74-23.6,23.32-33.48-6.59-12.07-14.18-25.33-22.77-39.79-8.6-14.45-17.01-28.62-25.24-42.53-8.23-13.9-15.91-26.52-23.05-37.87-7.13-11.34-12.54-19.76-16.19-25.24,8.78.74,17.01,1.37,24.7,1.92,7.68.55,15.18.82,22.5.82s14.72-.27,22.22-.82c7.49-.55,14.9-1.18,22.22-1.92,7.69,14.27,15.37,28.73,23.05,43.35,7.68,14.64,15.73,29.27,24.15,43.9,9.88-15.37,19.66-29.91,29.36-43.63,9.69-13.72,18.93-28.26,27.71-43.63,4.02.74,7.86,1.37,11.53,1.92,3.65.55,7.49.82,11.53.82s8.04-.27,12.07-.82c4.02-.55,8.59-1.18,13.72-1.92-3.29,4.03-8.51,10.52-15.64,19.48-7.14,8.97-15.01,18.93-23.6,29.91-8.6,10.98-17.38,22.32-26.34,34.03-8.97,11.71-16.93,22.32-23.87,31.83,14.63,25.24,29.45,50.21,44.45,74.91,15,24.7,30.18,49.31,45.55,73.81h-90l-50.49-91.65c-10.62,15.37-20.77,30.83-30.46,46.37Z"/>
    <path class="cls-2" d="M647.88,439.94c3.3,5.04,7.38,9.56,12.25,13.55,4.86,4,10.68,7.21,17.45,9.64,6.78,2.44,14.67,3.65,23.71,3.65,12.15,0,21.54-3.13,28.14-9.38,6.6-6.25,9.9-13.03,9.9-20.32,0-7.99-2.95-14.41-8.86-19.28-5.91-4.86-13.29-9.29-22.15-13.29-8.86-3.99-18.5-8.08-28.92-12.25-10.42-4.17-20.06-9.46-28.92-15.89-8.86-6.42-16.24-14.5-22.15-24.23-5.91-9.72-8.86-22.23-8.86-37.52s2.69-27.18,8.08-37.78c5.38-10.59,12.42-19.28,21.1-26.06,8.68-6.77,18.5-11.81,29.44-15.11,10.94-3.3,21.8-4.95,32.57-4.95,14.59,0,27.53,2.08,38.82,6.25,11.28,4.17,22.84,10.25,34.65,18.24-3.13,6.95-5.73,14.42-7.82,22.41-2.08,7.99-3.65,15.81-4.69,23.45h-14.59c-1.04-4.17-2.78-8.77-5.21-13.81-2.43-5.03-5.73-9.81-9.9-14.33-4.17-4.51-9.21-8.25-15.11-11.2-5.91-2.95-13.03-4.43-21.37-4.43-10.42,0-19.2,2.78-26.31,8.34-7.12,5.56-10.68,12.86-10.68,21.89,0,8.34,3.04,15.03,9.12,20.06,6.08,5.04,13.63,9.47,22.67,13.29,9.03,3.83,18.93,7.65,29.7,11.47,10.76,3.83,20.66,8.78,29.7,14.85,9.03,6.08,16.59,13.99,22.67,23.71,6.07,9.73,9.12,22.24,9.12,37.52s-2.78,28.4-8.34,39.34c-5.56,10.94-13.03,19.98-22.41,27.1-9.38,7.12-20.06,12.25-32.05,15.37-11.99,3.13-24.58,4.69-37.78,4.69-15.63,0-29.7-2.26-42.21-6.77-12.51-4.51-22.41-9.2-29.7-14.07,4.17-16.68,6.78-33.35,7.82-50.03h13.03c2.09,5.56,4.77,10.86,8.08,15.89Z"/>
    <path class="cls-2" d="M882.87,363.41c0,13.91,1.39,26.95,4.17,39.12,2.78,12.17,7.04,22.69,12.78,31.55,5.74,8.87,13.04,15.83,21.9,20.86,8.87,5.04,19.21,7.56,31.03,7.56,23.99,0,45.37-7.82,64.15-23.47l6.26,4.69-11.48,29.21c-8.69,6.61-19.13,11.91-31.29,15.91-12.18,3.99-28.16,6-47.98,6-17.04,0-33.21-2.35-48.51-7.04-15.3-4.69-28.77-12.43-40.42-23.21-11.65-10.77-20.86-24.42-27.64-40.94-6.78-16.51-10.17-36.25-10.17-59.2s3.04-42.25,9.13-58.94c6.08-16.69,14.51-30.59,25.3-41.72,10.77-11.12,23.55-19.47,38.33-25.03,14.77-5.56,30.85-8.34,48.24-8.34,34.42,0,60.76,10.09,79.01,30.25,18.25,20.17,27.38,48.68,27.38,85.54v10.95c0,3.13-.18,5.22-.52,6.26h-149.68ZM963.18,339.94c-.7-26.08-3.91-46.94-9.65-62.59-5.74-15.65-15.39-23.47-28.95-23.47-7.65,0-14.08,2.61-19.3,7.82-5.22,5.22-9.39,11.91-12.52,20.08-3.13,8.17-5.48,17.39-7.04,27.64-1.56,10.26-2.53,20.43-2.87,30.51h80.32Z"/>
    <path class="cls-2" d="M1128.46,363.41c0,13.91,1.39,26.95,4.17,39.12,2.78,12.17,7.04,22.69,12.78,31.55,5.74,8.87,13.04,15.83,21.9,20.86,8.87,5.04,19.21,7.56,31.03,7.56,23.99,0,45.37-7.82,64.15-23.47l6.26,4.69-11.48,29.21c-8.69,6.61-19.13,11.91-31.29,15.91-12.18,3.99-28.16,6-47.98,6-17.04,0-33.21-2.35-48.51-7.04-15.3-4.69-28.77-12.43-40.42-23.21-11.65-10.77-20.86-24.42-27.64-40.94-6.78-16.51-10.17-36.25-10.17-59.2s3.04-42.25,9.13-58.94c6.08-16.69,14.51-30.59,25.3-41.72,10.77-11.12,23.55-19.47,38.33-25.03,14.77-5.56,30.85-8.34,48.24-8.34,34.42,0,60.76,10.09,79.01,30.25,18.25,20.17,27.38,48.68,27.38,85.54v10.95c0,3.13-.18,5.22-.52,6.26h-149.68ZM1208.78,339.94c-.7-26.08-3.91-46.94-9.65-62.59-5.74-15.65-15.39-23.47-28.95-23.47-7.65,0-14.08,2.61-19.3,7.82-5.22,5.22-9.39,11.91-12.52,20.08-3.13,8.17-5.48,17.39-7.04,27.64-1.56,10.26-2.53,20.43-2.87,30.51h80.32Z"/>
    <g>
      <path class="cls-1" d="M1.36,645.98v-86.82h30.35c6.05,0,11.04,1.04,14.96,3.12,3.93,2.08,6.85,4.86,8.78,8.35,1.92,3.49,2.88,7.35,2.88,11.59,0,3.73-.66,6.81-1.97,9.24s-3.04,4.35-5.17,5.77-4.44,2.46-6.93,3.14v.85c2.66.17,5.33,1.1,8.01,2.8,2.68,1.7,4.93,4.13,6.74,7.29s2.71,7.04,2.71,11.62-.99,8.27-2.97,11.74c-1.98,3.48-5.1,6.23-9.37,8.27-4.27,2.04-9.82,3.05-16.66,3.05H1.36ZM11.88,597.31h19.5c3.17,0,6.03-.62,8.58-1.87,2.56-1.24,4.59-3,6.1-5.26,1.51-2.26,2.27-4.92,2.27-7.97,0-3.82-1.33-7.06-3.99-9.73s-6.87-4.01-12.63-4.01H11.88v28.83ZM11.88,636.65h20.86c6.87,0,11.75-1.34,14.65-4.01,2.9-2.67,4.35-5.91,4.35-9.73,0-2.94-.75-5.66-2.25-8.16-1.5-2.5-3.63-4.51-6.4-6.02-2.77-1.51-6.05-2.27-9.83-2.27H11.88v30.18Z"/>
      <path class="cls-1" d="M104.97,647.34c-6.27,0-11.68-1.39-16.22-4.18-4.54-2.78-8.03-6.68-10.47-11.7-2.45-5.02-3.67-10.86-3.67-17.53s1.22-12.55,3.67-17.66c2.44-5.1,5.86-9.09,10.26-11.96,4.39-2.87,9.53-4.3,15.41-4.3,3.39,0,6.74.57,10.05,1.7,3.31,1.13,6.32,2.96,9.03,5.49s4.88,5.87,6.49,10.03c1.61,4.15,2.42,9.27,2.42,15.35v4.24h-50.19v-8.65h40.02c0-3.67-.73-6.95-2.18-9.83s-3.52-5.16-6.19-6.83c-2.67-1.67-5.81-2.5-9.43-2.5-3.99,0-7.43.98-10.32,2.95-2.9,1.96-5.12,4.51-6.68,7.65-1.55,3.14-2.33,6.5-2.33,10.09v5.77c0,4.92.85,9.08,2.56,12.48,1.71,3.41,4.09,5.99,7.14,7.76,3.05,1.77,6.6,2.65,10.64,2.65,2.63,0,5.01-.37,7.14-1.12s3.98-1.88,5.53-3.39c1.55-1.51,2.76-3.4,3.6-5.66l9.67,2.71c-1.02,3.28-2.73,6.15-5.13,8.63-2.4,2.47-5.37,4.39-8.9,5.77-3.53,1.37-7.5,2.06-11.91,2.06Z"/>
      <path class="cls-1" d="M187.21,670.4c-1.7,0-3.21-.13-4.54-.4-1.33-.27-2.25-.53-2.76-.78l2.54-8.82c2.43.62,4.58.85,6.44.68s3.53-1,4.98-2.48c1.46-1.48,2.79-3.88,4.01-7.19l1.87-5.09-24.08-65.45h10.85l17.97,51.89h.68l17.97-51.89h10.85l-27.64,74.61c-1.24,3.36-2.78,6.15-4.62,8.37s-3.96,3.86-6.38,4.94c-2.42,1.07-5.14,1.61-8.16,1.61Z"/>
      <path class="cls-1" d="M271.32,647.34c-5.88,0-11.03-1.4-15.45-4.2-4.42-2.8-7.87-6.71-10.34-11.74-2.47-5.03-3.71-10.91-3.71-17.64s1.24-12.7,3.71-17.76,5.92-8.99,10.34-11.79,9.57-4.2,15.45-4.2,11.03,1.4,15.45,4.2,7.87,6.73,10.34,11.79,3.71,10.98,3.71,17.76-1.24,12.61-3.71,17.64c-2.47,5.03-5.92,8.94-10.34,11.74-4.42,2.8-9.57,4.2-15.45,4.2ZM271.32,638.35c4.47,0,8.14-1.14,11.02-3.43s5.02-5.3,6.4-9.03c1.38-3.73,2.08-7.77,2.08-12.12s-.69-8.41-2.08-12.17c-1.38-3.76-3.52-6.8-6.4-9.11s-6.56-3.48-11.02-3.48-8.14,1.16-11.02,3.48-5.02,5.36-6.4,9.11c-1.38,3.76-2.08,7.81-2.08,12.17s.69,8.39,2.08,12.12c1.38,3.73,3.52,6.74,6.4,9.03s6.56,3.43,11.02,3.43Z"/>
      <path class="cls-1" d="M357.12,619.36v-38.49h10v65.12h-10v-11.02h-.68c-1.53,3.31-3.9,6.11-7.12,8.42-3.22,2.3-7.29,3.46-12.21,3.46-4.07,0-7.69-.9-10.85-2.69-3.17-1.79-5.65-4.51-7.46-8.14-1.81-3.63-2.71-8.22-2.71-13.76v-41.38h10v40.7c0,4.75,1.34,8.54,4.01,11.36,2.67,2.83,6.08,4.24,10.24,4.24,2.49,0,5.02-.64,7.61-1.91,2.59-1.27,4.76-3.22,6.53-5.85,1.77-2.63,2.65-5.98,2.65-10.05Z"/>
      <path class="cls-1" d="M385.44,645.98v-65.12h9.67v9.83h.68c1.19-3.22,3.33-5.83,6.44-7.84,3.11-2.01,6.61-3.01,10.51-3.01.73,0,1.65.01,2.75.04,1.1.03,1.94.07,2.5.13v10.17c-.34-.08-1.11-.22-2.31-.4-1.2-.18-2.47-.28-3.79-.28-3.17,0-5.98.66-8.46,1.97-2.47,1.31-4.42,3.12-5.85,5.43-1.43,2.3-2.14,4.92-2.14,7.86v41.21h-10Z"/>
      <path class="cls-1" d="M489.9,647.34c-5.88,0-11.03-1.4-15.45-4.2-4.42-2.8-7.87-6.71-10.34-11.74-2.47-5.03-3.71-10.91-3.71-17.64s1.24-12.7,3.71-17.76,5.92-8.99,10.34-11.79,9.57-4.2,15.45-4.2,11.03,1.4,15.45,4.2,7.87,6.73,10.34,11.79,3.71,10.98,3.71,17.76-1.24,12.61-3.71,17.64c-2.47,5.03-5.92,8.94-10.34,11.74-4.42,2.8-9.57,4.2-15.45,4.2ZM489.9,638.35c4.47,0,8.14-1.14,11.02-3.43s5.02-5.3,6.4-9.03c1.38-3.73,2.08-7.77,2.08-12.12s-.69-8.41-2.08-12.17c-1.38-3.76-3.52-6.8-6.4-9.11s-6.56-3.48-11.02-3.48-8.14,1.16-11.02,3.48-5.02,5.36-6.4,9.11c-1.38,3.76-2.08,7.81-2.08,12.17s.69,8.39,2.08,12.12c1.38,3.73,3.52,6.74,6.4,9.03s6.56,3.43,11.02,3.43Z"/>
      <path class="cls-1" d="M547.21,645.98l-19.84-65.12h10.51l14.07,49.85h.68l13.9-49.85h10.68l13.74,49.68h.68l14.07-49.68h10.51l-19.84,65.12h-9.83l-14.24-50.02h-1.02l-14.24,50.02h-9.83Z"/>
      <path class="cls-1" d="M639.46,606.81v39.17h-10v-65.12h9.67v10.17h.85c1.53-3.31,3.84-5.97,6.95-7.99,3.11-2.02,7.12-3.03,12.04-3.03,4.41,0,8.27.9,11.57,2.69s5.88,4.51,7.71,8.14c1.84,3.63,2.76,8.22,2.76,13.76v41.38h-10v-40.7c0-5.11-1.33-9.11-3.98-11.98-2.66-2.87-6.3-4.3-10.94-4.3-3.19,0-6.04.69-8.54,2.08s-4.47,3.41-5.91,6.06-2.16,5.88-2.16,9.67Z"/>
      <path class="cls-1" d="M734.25,645.98v-86.82h10v32.05h.85c.73-1.13,1.76-2.58,3.07-4.34s3.21-3.35,5.68-4.75c2.47-1.4,5.83-2.1,10.07-2.1,5.48,0,10.32,1.37,14.5,4.11s7.45,6.63,9.79,11.66c2.34,5.03,3.52,10.97,3.52,17.8s-1.17,12.87-3.52,17.91c-2.35,5.04-5.6,8.95-9.75,11.7-4.15,2.75-8.94,4.13-14.37,4.13-4.18,0-7.53-.7-10.05-2.1-2.52-1.4-4.45-3-5.81-4.79-1.36-1.79-2.4-3.29-3.14-4.47h-1.19v10h-9.67ZM744.08,613.42c0,4.92.72,9.25,2.16,12.99,1.44,3.75,3.55,6.67,6.32,8.78,2.77,2.11,6.16,3.16,10.17,3.16s7.68-1.11,10.49-3.33c2.81-2.22,4.93-5.21,6.36-8.99,1.43-3.77,2.14-7.98,2.14-12.61s-.7-8.71-2.1-12.4c-1.4-3.69-3.5-6.61-6.32-8.78-2.81-2.16-6.34-3.24-10.58-3.24s-7.49,1.02-10.26,3.07c-2.77,2.05-4.86,4.9-6.27,8.56-1.41,3.66-2.12,7.92-2.12,12.78Z"/>
      <path class="cls-1" d="M833.44,647.34c-5.88,0-11.03-1.4-15.45-4.2-4.42-2.8-7.87-6.71-10.34-11.74-2.47-5.03-3.71-10.91-3.71-17.64s1.24-12.7,3.71-17.76,5.92-8.99,10.34-11.79,9.57-4.2,15.45-4.2,11.03,1.4,15.45,4.2,7.87,6.73,10.34,11.79,3.71,10.98,3.71,17.76-1.24,12.61-3.71,17.64c-2.47,5.03-5.92,8.94-10.34,11.74-4.42,2.8-9.57,4.2-15.45,4.2ZM833.44,638.35c4.47,0,8.14-1.14,11.02-3.43s5.02-5.3,6.4-9.03c1.38-3.73,2.08-7.77,2.08-12.12s-.69-8.41-2.08-12.17c-1.38-3.76-3.52-6.8-6.4-9.11s-6.56-3.48-11.02-3.48-8.14,1.16-11.02,3.48-5.02,5.36-6.4,9.11c-1.38,3.76-2.08,7.81-2.08,12.17s.69,8.39,2.08,12.12c1.38,3.73,3.52,6.74,6.4,9.03s6.56,3.43,11.02,3.43Z"/>
      <path class="cls-1" d="M882.96,580.86l15.6,26.62,15.6-26.62h11.53l-21.03,32.56,21.03,32.56h-11.53l-15.6-25.27-15.6,25.27h-11.53l20.69-32.56-20.69-32.56h11.53Z"/>
      <path class="cls-1" d="M999.96,647.34c-5.88,0-11.03-1.4-15.45-4.2-4.42-2.8-7.87-6.71-10.34-11.74-2.47-5.03-3.71-10.91-3.71-17.64s1.24-12.7,3.71-17.76,5.92-8.99,10.34-11.79,9.57-4.2,15.45-4.2,11.03,1.4,15.45,4.2,7.87,6.73,10.34,11.79,3.71,10.98,3.71,17.76-1.24,12.61-3.71,17.64c-2.47,5.03-5.92,8.94-10.34,11.74-4.42,2.8-9.57,4.2-15.45,4.2ZM999.96,638.35c4.47,0,8.14-1.14,11.02-3.43s5.02-5.3,6.4-9.03c1.38-3.73,2.08-7.77,2.08-12.12s-.69-8.41-2.08-12.17c-1.38-3.76-3.52-6.8-6.4-9.11s-6.56-3.48-11.02-3.48-8.14,1.16-11.02,3.48-5.02,5.36-6.4,9.11c-1.38,3.76-2.08,7.81-2.08,12.17s.69,8.39,2.08,12.12c1.38,3.73,3.52,6.74,6.4,9.03s6.56,3.43,11.02,3.43Z"/>
      <path class="cls-1" d="M1073.73,580.86v8.48h-35.1v-8.48h35.1ZM1049.14,645.98v-74.1c0-3.73.88-6.84,2.63-9.33,1.75-2.49,4.03-4.35,6.83-5.6,2.8-1.24,5.75-1.87,8.86-1.87,2.46,0,4.47.2,6.02.59,1.55.4,2.71.76,3.48,1.1l-2.88,8.65c-.51-.17-1.21-.38-2.1-.64-.89-.25-2.06-.38-3.5-.38-3.31,0-5.69.83-7.14,2.5-1.46,1.67-2.18,4.11-2.18,7.33v71.73h-10Z"/>
      <path class="cls-1" d="M1116.8,580.86v8.48h-35.1v-8.48h35.1ZM1092.21,645.98v-74.1c0-3.73.88-6.84,2.63-9.33,1.75-2.49,4.03-4.35,6.83-5.6,2.8-1.24,5.75-1.87,8.86-1.87,2.46,0,4.47.2,6.02.59,1.55.4,2.71.76,3.48,1.1l-2.88,8.65c-.51-.17-1.21-.38-2.1-.64-.89-.25-2.06-.38-3.5-.38-3.31,0-5.69.83-7.14,2.5-1.46,1.67-2.18,4.11-2.18,7.33v71.73h-10Z"/>
      <path class="cls-1" d="M1135.96,570.01c-1.95,0-3.62-.66-5.02-1.99-1.4-1.33-2.1-2.92-2.1-4.79s.7-3.46,2.1-4.79c1.4-1.33,3.07-1.99,5.02-1.99s3.62.66,5.02,1.99c1.4,1.33,2.1,2.93,2.1,4.79s-.7,3.46-2.1,4.79c-1.4,1.33-3.07,1.99-5.02,1.99ZM1130.87,645.98v-65.12h10v65.12h-10Z"/>
      <path class="cls-1" d="M1185.64,647.34c-6.1,0-11.36-1.44-15.77-4.32s-7.8-6.85-10.17-11.91c-2.37-5.06-3.56-10.84-3.56-17.34s1.22-12.46,3.67-17.53c2.44-5.07,5.86-9.04,10.26-11.91,4.39-2.87,9.53-4.3,15.41-4.3,4.58,0,8.7.85,12.38,2.54,3.67,1.7,6.68,4.07,9.03,7.12,2.35,3.05,3.8,6.61,4.37,10.68h-10c-.76-2.97-2.45-5.6-5.07-7.91-2.61-2.3-6.13-3.46-10.54-3.46-3.9,0-7.31,1.01-10.24,3.03s-5.2,4.86-6.83,8.52c-1.63,3.66-2.44,7.95-2.44,12.87s.8,9.41,2.39,13.14,3.86,6.63,6.78,8.69c2.92,2.06,6.37,3.09,10.32,3.09,2.6,0,4.96-.45,7.08-1.36,2.12-.9,3.91-2.2,5.38-3.9,1.47-1.7,2.51-3.73,3.14-6.1h10c-.57,3.84-1.96,7.3-4.18,10.37-2.22,3.07-5.14,5.5-8.78,7.29-3.63,1.79-7.85,2.69-12.65,2.69Z"/>
      <path class="cls-1" d="M1253.13,647.34c-6.27,0-11.68-1.39-16.22-4.18-4.54-2.78-8.03-6.68-10.47-11.7-2.45-5.02-3.67-10.86-3.67-17.53s1.22-12.55,3.67-17.66c2.44-5.1,5.86-9.09,10.26-11.96,4.39-2.87,9.53-4.3,15.41-4.3,3.39,0,6.74.57,10.05,1.7,3.31,1.13,6.32,2.96,9.03,5.49s4.88,5.87,6.49,10.03c1.61,4.15,2.42,9.27,2.42,15.35v4.24h-50.19v-8.65h40.02c0-3.67-.73-6.95-2.18-9.83s-3.52-5.16-6.19-6.83c-2.67-1.67-5.81-2.5-9.43-2.5-3.99,0-7.43.98-10.32,2.95-2.9,1.96-5.12,4.51-6.68,7.65-1.55,3.14-2.33,6.5-2.33,10.09v5.77c0,4.92.85,9.08,2.56,12.48,1.71,3.41,4.09,5.99,7.14,7.76,3.05,1.77,6.6,2.65,10.64,2.65,2.63,0,5.01-.37,7.14-1.12s3.98-1.88,5.53-3.39c1.55-1.51,2.76-3.4,3.6-5.66l9.67,2.71c-1.02,3.28-2.73,6.15-5.13,8.63-2.4,2.47-5.37,4.39-8.9,5.77-3.53,1.37-7.5,2.06-11.91,2.06Z"/>
    </g>
    <path class="cls-2" d="M354.77,157.47c-.62,6.71-4.14,16.59-7.11,22.72-1.47,3.05-10.99,19-13.94,18.77-4.69-2.78-4.98-8.47-7.09-12.61-1.25-2.46-3.15,1.23-4.82,2.41-8.09,5.73-16.93,7.95-24.36,13.11-4.37,3.03-16.51,18.97-17.67,6.11-.37-4.09-.01-17.27,1.49-20.76,1.52-3.53,10.78-3.64,13.08-7.95-5.33.58-10.48-1.37-15.28-3.46-2.06-.89-9.79-4.14-9.11-6.75,2.36-2.96,6.66-2.53,10.27-4.31,4.73-2.33,9.98-7.45,13.36-11.49-8.75,2.91-34.75,3.27-36.67-8.85-2.06-12.98,18.43-18.07,27.95-18.62,1.91-.11,4.55,2.03,5.65-.82-21.57-5.1-38.86-23.81-45.13-44.73-1.52-5.08-5.12-20.59.75-22.97,8.39-3.4,26.73,5.49,34.2,10.19,2.86,1.8,18.91,15.86,20.88,13.91-2.1-10.7.28-22.54-.77-33.26-1.04-10.66-7.23-26.47-14.91-34.03-1.82-1.79-10.42-7.05-10.7-7.64-3.9-8.14,11.61-6.4,15.97-6.03,18.7,1.56,36.06,9.48,49.82,22.06,2.13,1.95,9.77,11.43,10.49,11.74,2.51,1.1,6.78,1.02,9.63,1.78,7.24,1.93,16.83,6.3,24.13,5.53,2.85-.3,8.99-3.68,9.66,1.28.65,4.9-8.74,15.8-13.78,17.17,21.92,22.48,8.57,61.03-21.41,67.66,4.8,3.57,8.28,8.23,14.87,8.06,5.77-.15,14.92-3.46,19.93-3.15,8.29.51-3.51,8.75-5.99,10.14-6.97,3.89-17.01,7.71-25.01,5.63-3.66-.95-4.97-4.87-8.39-5.76-.32,4.83.44,10.15,0,14.91Z"/>
  </g>
</svg>